<svg id="svg" version="1.1" xmlns="http://www.w3.org/2000/svg" xmlns:xlink="http://www.w3.org/1999/xlink" width="350" height="156.01882985877606" viewBox="0, 0, 400,156.01882985877606"><g id="svgg"><path id="path0" d="M26.958 12.945 C 26.431 12.984,26.000 13.088,26.000 13.175 C 26.000 13.262,25.681 13.334,25.292 13.336 C 24.902 13.337,24.283 13.446,23.917 13.579 C 23.550 13.711,23.006 13.822,22.708 13.826 C 22.410 13.830,22.167 13.900,22.167 13.981 C 22.167 14.062,21.829 14.179,21.417 14.241 C 21.004 14.303,20.667 14.424,20.667 14.510 C 20.667 14.596,20.517 14.667,20.333 14.667 C 20.150 14.667,20.000 14.732,20.000 14.812 C 20.000 14.892,19.700 15.005,19.333 15.064 C 18.967 15.123,18.667 15.245,18.667 15.335 C 18.667 15.426,18.509 15.500,18.317 15.500 C 17.958 15.500,16.960 15.985,16.861 16.208 C 16.831 16.277,16.705 16.333,16.581 16.333 C 16.458 16.333,16.258 16.427,16.137 16.542 C 16.016 16.656,15.579 16.922,15.167 17.131 C 14.128 17.659,13.798 17.871,13.483 18.208 C 13.333 18.369,13.141 18.500,13.056 18.500 C 12.883 18.500,12.359 18.874,11.657 19.500 C 11.400 19.729,10.949 20.104,10.655 20.333 C 9.927 20.901,7.667 23.103,7.667 23.245 C 7.667 23.308,7.460 23.576,7.208 23.841 C 6.552 24.531,6.333 24.804,6.333 24.932 C 6.333 24.994,6.160 25.205,5.949 25.401 C 5.738 25.597,5.513 25.868,5.450 26.004 C 5.286 26.356,4.950 26.866,4.708 27.130 C 4.594 27.255,4.500 27.464,4.500 27.595 C 4.500 27.726,4.425 27.833,4.333 27.833 C 4.242 27.833,4.167 27.946,4.167 28.083 C 4.167 28.221,4.093 28.333,4.003 28.333 C 3.913 28.333,3.793 28.521,3.735 28.750 C 3.678 28.979,3.567 29.167,3.489 29.167 C 3.412 29.167,3.299 29.429,3.239 29.750 C 3.179 30.071,3.063 30.333,2.981 30.333 C 2.900 30.333,2.833 30.446,2.833 30.583 C 2.833 30.721,2.759 30.833,2.669 30.833 C 2.578 30.833,2.456 31.133,2.397 31.500 C 2.339 31.867,2.241 32.167,2.180 32.167 C 2.119 32.167,1.929 32.579,1.757 33.083 C 1.586 33.587,1.393 34.000,1.329 34.000 C 1.265 34.000,1.167 34.388,1.111 34.862 C 1.055 35.336,0.932 35.801,0.838 35.896 C 0.744 35.990,0.667 36.277,0.667 36.533 C 0.667 36.790,0.603 37.000,0.524 37.000 C -0.145 37.000,-0.153 51.039,0.516 51.742 C 0.599 51.829,0.667 52.110,0.667 52.367 C 0.667 52.623,0.735 52.833,0.818 52.833 C 0.901 52.833,1.022 53.227,1.088 53.708 C 1.153 54.190,1.254 54.621,1.312 54.667 C 1.462 54.786,1.857 55.835,1.955 56.375 C 2.000 56.627,2.101 56.833,2.178 56.833 C 2.255 56.833,2.367 57.096,2.428 57.417 C 2.488 57.737,2.604 58.000,2.685 58.000 C 2.767 58.000,2.833 58.112,2.833 58.250 C 2.833 58.387,2.902 58.500,2.987 58.500 C 3.071 58.500,3.190 58.725,3.250 59.000 C 3.310 59.275,3.419 59.500,3.492 59.500 C 3.565 59.500,3.667 59.706,3.718 59.958 C 3.769 60.210,3.966 60.582,4.155 60.785 C 4.345 60.987,4.500 61.233,4.500 61.332 C 4.500 61.430,4.613 61.554,4.750 61.606 C 4.888 61.659,5.000 61.847,5.000 62.023 C 5.000 62.199,5.112 62.387,5.250 62.440 C 5.388 62.492,5.500 62.608,5.500 62.696 C 5.500 62.785,5.594 62.962,5.708 63.089 C 6.162 63.595,6.333 63.824,6.333 63.922 C 6.333 63.979,6.558 64.251,6.833 64.526 C 7.108 64.801,7.333 65.077,7.333 65.141 C 7.333 65.348,10.205 68.167,10.416 68.167 C 10.470 68.167,10.799 68.467,11.148 68.833 C 11.496 69.200,11.834 69.500,11.898 69.500 C 12.008 69.500,12.227 69.661,12.744 70.125 C 12.872 70.240,13.057 70.333,13.155 70.333 C 13.253 70.333,13.333 70.407,13.333 70.497 C 13.333 70.587,13.515 70.706,13.738 70.762 C 13.960 70.818,14.183 70.969,14.233 71.098 C 14.282 71.228,14.475 71.333,14.661 71.333 C 14.848 71.333,15.000 71.408,15.000 71.500 C 15.000 71.592,15.112 71.667,15.250 71.667 C 15.387 71.667,15.500 71.737,15.500 71.822 C 15.500 71.908,15.669 72.030,15.875 72.095 C 16.081 72.159,16.287 72.260,16.333 72.318 C 16.494 72.524,18.137 73.300,18.649 73.413 C 18.934 73.475,19.167 73.596,19.167 73.680 C 19.167 73.764,19.317 73.833,19.500 73.833 C 19.683 73.833,19.833 73.900,19.833 73.981 C 19.833 74.062,20.171 74.179,20.583 74.241 C 20.996 74.303,21.333 74.420,21.333 74.502 C 21.333 74.583,21.783 74.701,22.333 74.763 C 22.883 74.825,23.333 74.942,23.333 75.022 C 23.333 75.101,23.558 75.167,23.833 75.167 C 24.108 75.167,24.333 75.235,24.333 75.318 C 24.333 75.402,24.990 75.518,25.792 75.576 C 26.594 75.634,27.380 75.753,27.539 75.841 C 27.899 76.038,35.167 76.054,35.167 75.857 C 35.167 75.779,35.860 75.662,36.708 75.599 C 37.556 75.535,38.275 75.412,38.306 75.325 C 38.336 75.238,38.580 75.167,38.847 75.167 C 39.115 75.167,39.333 75.101,39.333 75.022 C 39.333 74.942,39.783 74.825,40.333 74.763 C 40.883 74.701,41.333 74.587,41.333 74.511 C 41.333 74.434,41.671 74.321,42.083 74.259 C 42.496 74.197,42.833 74.076,42.833 73.990 C 42.833 73.904,42.983 73.833,43.167 73.833 C 43.350 73.833,43.500 73.768,43.500 73.688 C 43.500 73.608,43.800 73.495,44.167 73.436 C 44.533 73.377,44.833 73.261,44.833 73.178 C 44.833 73.095,45.058 72.977,45.333 72.917 C 45.608 72.856,45.833 72.738,45.833 72.653 C 45.833 72.569,45.946 72.500,46.083 72.500 C 46.399 72.500,46.431 71.411,46.121 71.217 C 46.004 71.143,45.769 70.864,45.598 70.596 C 45.427 70.327,45.110 69.944,44.894 69.743 C 44.677 69.543,44.500 69.312,44.500 69.231 C 44.500 69.150,44.200 68.792,43.833 68.437 C 43.467 68.081,43.167 67.727,43.167 67.651 C 43.167 67.574,42.960 67.284,42.708 67.005 C 42.456 66.726,42.063 66.269,41.833 65.988 C 41.604 65.708,41.323 65.376,41.208 65.251 C 41.094 65.126,41.000 64.973,41.000 64.910 C 41.000 64.848,40.666 64.467,40.258 64.065 C 39.577 63.394,38.833 63.098,38.833 63.498 C 38.833 63.589,38.533 63.711,38.167 63.769 C 37.800 63.828,37.500 63.941,37.500 64.021 C 37.500 64.101,37.275 64.167,37.000 64.167 C 36.725 64.167,36.500 64.237,36.500 64.322 C 36.500 64.407,35.900 64.529,35.167 64.593 C 34.433 64.657,33.833 64.775,33.833 64.855 C 33.833 65.044,29.047 65.045,28.930 64.855 C 28.881 64.776,28.239 64.658,27.504 64.594 C 26.768 64.530,26.167 64.407,26.167 64.322 C 26.167 64.237,25.979 64.167,25.750 64.167 C 25.521 64.167,25.333 64.096,25.333 64.010 C 25.333 63.924,24.996 63.803,24.583 63.741 C 24.171 63.679,23.833 63.577,23.833 63.514 C 23.833 63.451,23.440 63.261,22.958 63.092 C 22.477 62.923,21.965 62.683,21.820 62.559 C 21.675 62.435,21.469 62.333,21.362 62.333 C 21.255 62.333,21.167 62.258,21.167 62.167 C 21.167 62.075,21.025 62.000,20.851 62.000 C 20.678 62.000,20.492 61.887,20.440 61.750 C 20.387 61.612,20.229 61.500,20.089 61.500 C 19.948 61.500,19.833 61.430,19.833 61.345 C 19.833 61.259,19.669 61.137,19.469 61.073 C 19.268 61.010,18.866 60.705,18.574 60.396 C 18.283 60.086,17.993 59.833,17.932 59.833 C 17.707 59.833,16.333 58.542,16.333 58.332 C 16.333 58.253,16.183 58.142,16.000 58.083 C 15.817 58.025,15.667 57.873,15.667 57.745 C 15.667 57.616,15.460 57.295,15.208 57.030 C 14.728 56.524,14.409 56.086,14.217 55.667 C 14.154 55.529,14.004 55.318,13.884 55.196 C 13.765 55.075,13.667 54.869,13.667 54.738 C 13.667 54.607,13.592 54.500,13.500 54.500 C 13.408 54.500,13.333 54.387,13.333 54.250 C 13.333 54.112,13.267 54.000,13.185 54.000 C 13.104 54.000,12.988 53.737,12.928 53.417 C 12.867 53.096,12.747 52.833,12.659 52.833 C 12.572 52.833,12.500 52.721,12.500 52.583 C 12.500 52.446,12.435 52.333,12.355 52.333 C 12.275 52.333,12.161 52.033,12.103 51.667 C 12.044 51.300,11.927 51.000,11.843 51.000 C 11.759 51.000,11.639 50.587,11.576 50.083 C 11.513 49.579,11.395 49.167,11.314 49.167 C 11.233 49.167,11.167 48.882,11.167 48.533 C 11.167 48.185,11.075 47.808,10.963 47.696 C 10.676 47.409,10.680 40.801,10.968 40.705 C 11.077 40.669,11.167 40.425,11.167 40.163 C 11.167 39.901,11.235 39.644,11.318 39.593 C 11.401 39.542,11.520 39.125,11.583 38.666 C 11.646 38.208,11.756 37.833,11.828 37.833 C 11.899 37.833,12.005 37.533,12.064 37.167 C 12.123 36.800,12.245 36.500,12.335 36.500 C 12.426 36.500,12.500 36.313,12.500 36.083 C 12.500 35.854,12.569 35.667,12.653 35.667 C 12.738 35.667,12.857 35.438,12.918 35.159 C 12.980 34.880,13.211 34.457,13.432 34.218 C 13.653 33.980,13.833 33.654,13.833 33.493 C 13.833 33.333,13.946 33.159,14.083 33.106 C 14.221 33.054,14.333 32.863,14.333 32.683 C 14.333 32.503,14.479 32.309,14.658 32.253 C 14.837 32.196,15.033 31.991,15.095 31.797 C 15.275 31.230,19.360 27.333,19.774 27.333 C 19.898 27.333,20.000 27.260,20.000 27.170 C 20.000 27.080,20.188 26.959,20.417 26.902 C 20.646 26.844,20.833 26.730,20.833 26.649 C 20.833 26.567,20.946 26.500,21.083 26.500 C 21.221 26.500,21.333 26.425,21.333 26.333 C 21.333 26.242,21.427 26.164,21.542 26.161 C 21.656 26.158,22.050 26.010,22.417 25.833 C 22.783 25.656,23.177 25.509,23.292 25.506 C 23.406 25.503,23.500 25.425,23.500 25.333 C 23.500 25.242,23.613 25.167,23.750 25.167 C 23.887 25.167,24.000 25.099,24.000 25.016 C 24.000 24.933,24.375 24.813,24.833 24.750 C 25.292 24.687,25.667 24.567,25.667 24.484 C 25.667 24.401,25.923 24.333,26.236 24.333 C 26.549 24.333,26.831 24.259,26.861 24.168 C 26.892 24.076,27.723 23.952,28.708 23.892 C 29.694 23.832,30.500 23.719,30.500 23.641 C 30.500 23.564,30.875 23.500,31.333 23.500 C 31.792 23.500,32.167 23.564,32.167 23.641 C 32.167 23.719,32.969 23.832,33.950 23.892 C 34.932 23.952,35.809 24.076,35.900 24.167 C 35.992 24.259,36.277 24.333,36.533 24.333 C 36.790 24.333,37.000 24.401,37.000 24.484 C 37.000 24.567,37.375 24.687,37.833 24.750 C 38.292 24.813,38.667 24.914,38.667 24.975 C 38.667 25.107,39.404 25.438,40.042 25.592 C 40.294 25.653,40.500 25.764,40.500 25.838 C 40.500 25.913,40.725 26.023,41.000 26.083 C 41.275 26.144,41.500 26.250,41.500 26.320 C 41.500 26.390,41.762 26.589,42.083 26.762 C 42.404 26.934,42.667 27.126,42.667 27.186 C 42.667 27.247,42.854 27.344,43.083 27.402 C 43.313 27.459,43.500 27.580,43.500 27.670 C 43.500 27.760,43.582 27.833,43.681 27.833 C 43.781 27.833,44.271 28.246,44.772 28.750 C 45.272 29.254,45.790 29.667,45.924 29.667 C 46.057 29.667,46.167 29.742,46.167 29.833 C 46.167 30.261,46.722 29.789,49.599 26.917 C 51.297 25.221,52.759 23.833,52.846 23.833 C 53.108 23.833,53.990 22.773,53.995 22.451 C 54.001 22.088,52.063 20.091,51.550 19.931 C 51.349 19.868,51.137 19.670,51.081 19.492 C 51.024 19.313,50.795 19.122,50.572 19.066 C 50.349 19.010,50.167 18.902,50.167 18.826 C 50.167 18.751,49.998 18.636,49.792 18.571 C 49.585 18.505,49.319 18.313,49.199 18.143 C 49.079 17.973,48.870 17.833,48.735 17.833 C 48.600 17.833,48.446 17.721,48.394 17.583 C 48.341 17.446,48.156 17.333,47.982 17.333 C 47.809 17.333,47.667 17.260,47.667 17.171 C 47.667 17.007,46.334 16.333,46.009 16.333 C 45.912 16.333,45.833 16.258,45.833 16.167 C 45.833 16.075,45.721 16.000,45.583 16.000 C 45.446 16.000,45.333 15.928,45.333 15.841 C 45.333 15.753,45.071 15.633,44.750 15.572 C 44.429 15.512,44.167 15.403,44.167 15.329 C 44.167 15.256,43.867 15.145,43.500 15.083 C 43.133 15.021,42.833 14.902,42.833 14.819 C 42.833 14.735,42.688 14.667,42.510 14.667 C 42.332 14.667,42.143 14.596,42.089 14.510 C 42.036 14.423,41.656 14.302,41.246 14.241 C 40.836 14.179,40.500 14.062,40.500 13.981 C 40.500 13.900,40.284 13.833,40.021 13.833 C 39.757 13.833,39.223 13.721,38.833 13.583 C 38.444 13.446,37.878 13.333,37.576 13.333 C 37.275 13.333,37.000 13.249,36.965 13.146 C 36.901 12.954,28.968 12.794,26.958 12.945 M82.125 12.945 C 81.598 12.985,81.167 13.088,81.167 13.175 C 81.167 13.262,80.916 13.333,80.610 13.333 C 80.304 13.333,79.685 13.445,79.235 13.582 C 78.785 13.718,78.248 13.831,78.042 13.832 C 77.835 13.833,77.667 13.901,77.667 13.984 C 77.667 14.067,77.292 14.187,76.833 14.250 C 76.375 14.313,76.000 14.433,76.000 14.516 C 76.000 14.599,75.813 14.667,75.583 14.667 C 75.354 14.667,75.167 14.732,75.167 14.812 C 75.167 14.892,74.867 15.005,74.500 15.064 C 74.133 15.123,73.833 15.239,73.833 15.322 C 73.833 15.405,73.608 15.523,73.333 15.583 C 73.058 15.644,72.833 15.762,72.833 15.847 C 72.833 15.931,72.683 16.000,72.500 16.000 C 72.317 16.000,72.167 16.069,72.167 16.153 C 72.167 16.238,71.942 16.356,71.667 16.417 C 71.392 16.477,71.167 16.587,71.167 16.662 C 71.167 16.736,70.979 16.844,70.750 16.902 C 70.521 16.959,70.333 17.080,70.333 17.170 C 70.333 17.260,70.221 17.333,70.083 17.333 C 69.946 17.333,69.833 17.400,69.833 17.482 C 69.833 17.564,69.646 17.678,69.417 17.735 C 69.188 17.793,69.000 17.913,69.000 18.003 C 69.000 18.093,68.915 18.167,68.811 18.167 C 68.707 18.167,68.448 18.354,68.235 18.583 C 68.023 18.813,67.744 19.000,67.615 19.000 C 67.486 19.000,67.239 19.188,67.067 19.417 C 66.895 19.646,66.664 19.833,66.555 19.833 C 66.445 19.833,65.946 20.255,65.447 20.769 C 64.424 21.823,64.539 21.708,63.081 23.158 C 62.486 23.748,62.000 24.296,62.000 24.374 C 62.000 24.452,61.813 24.690,61.583 24.902 C 61.354 25.114,61.167 25.374,61.167 25.479 C 61.167 25.583,60.979 25.832,60.750 26.031 C 60.521 26.230,60.333 26.495,60.333 26.619 C 60.333 26.742,60.225 26.885,60.094 26.936 C 59.962 26.986,59.802 27.265,59.738 27.556 C 59.674 27.846,59.488 28.177,59.324 28.292 C 59.160 28.407,58.977 28.725,58.917 29.000 C 58.856 29.275,58.738 29.500,58.653 29.500 C 58.569 29.500,58.500 29.613,58.500 29.750 C 58.500 29.887,58.431 30.000,58.347 30.000 C 58.262 30.000,58.144 30.225,58.083 30.500 C 58.023 30.775,57.911 31.000,57.835 31.000 C 57.758 31.000,57.645 31.300,57.583 31.667 C 57.521 32.033,57.402 32.333,57.319 32.333 C 57.235 32.333,57.167 32.483,57.167 32.667 C 57.167 32.850,57.100 33.000,57.019 33.000 C 56.938 33.000,56.821 33.337,56.759 33.750 C 56.697 34.162,56.580 34.500,56.498 34.500 C 56.417 34.500,56.299 34.950,56.237 35.500 C 56.175 36.050,56.058 36.500,55.978 36.500 C 55.899 36.500,55.833 36.719,55.833 36.986 C 55.833 37.253,55.760 37.497,55.670 37.528 C 55.580 37.558,55.456 38.352,55.395 39.292 C 55.333 40.231,55.220 41.000,55.142 41.000 C 55.064 41.000,55.000 42.500,55.000 44.333 C 55.000 46.167,55.064 47.667,55.142 47.667 C 55.220 47.667,55.333 48.435,55.395 49.375 C 55.456 50.315,55.580 51.108,55.670 51.139 C 55.760 51.169,55.833 51.451,55.833 51.764 C 55.833 52.077,55.900 52.333,55.981 52.333 C 56.062 52.333,56.180 52.746,56.243 53.250 C 56.306 53.754,56.420 54.167,56.496 54.167 C 56.573 54.167,56.687 54.542,56.750 55.000 C 56.813 55.458,56.933 55.833,57.016 55.833 C 57.099 55.833,57.167 55.946,57.167 56.083 C 57.167 56.221,57.232 56.333,57.312 56.333 C 57.392 56.333,57.505 56.633,57.564 57.000 C 57.623 57.367,57.745 57.667,57.835 57.667 C 57.926 57.667,58.000 57.749,58.000 57.850 C 58.000 58.073,58.522 59.217,58.677 59.333 C 58.738 59.379,58.847 59.604,58.918 59.833 C 58.989 60.063,59.176 60.362,59.333 60.500 C 59.490 60.637,59.677 60.934,59.748 61.159 C 59.819 61.384,59.980 61.670,60.105 61.796 C 60.231 61.921,60.333 62.113,60.333 62.222 C 60.333 62.332,60.521 62.562,60.750 62.734 C 60.979 62.906,61.167 63.152,61.167 63.281 C 61.167 63.410,61.354 63.690,61.583 63.902 C 61.812 64.114,62.000 64.344,62.000 64.412 C 62.000 64.562,66.437 69.000,66.587 69.000 C 66.645 69.000,66.917 69.225,67.192 69.500 C 67.467 69.775,67.782 70.000,67.893 70.000 C 68.003 70.000,68.201 70.150,68.333 70.333 C 68.465 70.517,68.664 70.667,68.775 70.667 C 68.886 70.667,69.078 70.760,69.203 70.875 C 69.535 71.179,70.041 71.496,70.375 71.608 C 70.535 71.661,70.667 71.766,70.667 71.840 C 70.667 71.913,70.892 72.023,71.167 72.083 C 71.442 72.144,71.667 72.245,71.667 72.307 C 71.667 72.431,72.899 73.000,73.168 73.000 C 73.259 73.000,73.333 73.069,73.333 73.153 C 73.333 73.238,73.558 73.356,73.833 73.417 C 74.108 73.477,74.333 73.596,74.333 73.680 C 74.333 73.764,74.521 73.833,74.750 73.833 C 74.979 73.833,75.167 73.901,75.167 73.984 C 75.167 74.067,75.542 74.187,76.000 74.250 C 76.458 74.313,76.833 74.426,76.833 74.500 C 76.833 74.574,77.208 74.687,77.667 74.750 C 78.125 74.813,78.500 74.933,78.500 75.016 C 78.500 75.099,78.794 75.167,79.153 75.167 C 79.512 75.167,79.831 75.238,79.861 75.325 C 79.892 75.412,80.610 75.535,81.458 75.599 C 82.306 75.662,83.000 75.779,83.000 75.857 C 83.000 75.936,84.612 76.000,86.583 76.000 C 88.554 76.000,90.167 75.936,90.167 75.857 C 90.167 75.779,90.935 75.662,91.875 75.598 C 92.815 75.533,93.608 75.410,93.639 75.324 C 93.669 75.237,93.951 75.167,94.264 75.167 C 94.577 75.167,94.833 75.097,94.833 75.012 C 94.833 74.927,95.246 74.806,95.750 74.743 C 96.254 74.680,96.667 74.571,96.667 74.502 C 96.667 74.433,96.967 74.328,97.333 74.269 C 97.700 74.211,98.000 74.089,98.000 73.998 C 98.000 73.907,98.188 73.833,98.417 73.833 C 98.646 73.833,98.833 73.762,98.833 73.674 C 98.833 73.587,99.096 73.466,99.417 73.406 C 99.737 73.345,100.000 73.239,100.000 73.169 C 100.000 73.099,100.223 72.997,100.495 72.943 C 100.767 72.888,101.134 72.699,101.311 72.522 C 101.488 72.345,101.865 72.150,102.150 72.087 C 102.434 72.025,102.667 71.904,102.667 71.820 C 102.667 71.736,102.779 71.667,102.917 71.667 C 103.054 71.667,103.167 71.593,103.167 71.503 C 103.167 71.413,103.354 71.293,103.583 71.235 C 103.813 71.178,104.000 71.062,104.000 70.978 C 104.000 70.894,104.189 70.753,104.421 70.665 C 104.652 70.577,104.885 70.391,104.939 70.253 C 104.992 70.114,105.128 70.000,105.242 70.000 C 105.355 70.000,105.666 69.813,105.932 69.584 C 106.199 69.354,106.467 69.167,106.529 69.167 C 106.693 69.167,107.667 68.166,107.667 67.998 C 107.667 67.920,107.829 67.804,108.028 67.741 C 108.384 67.628,109.833 66.307,109.833 66.095 C 109.833 66.036,110.115 65.692,110.458 65.332 C 111.261 64.491,111.500 64.204,111.500 64.082 C 111.500 64.028,111.688 63.810,111.917 63.598 C 112.146 63.386,112.333 63.126,112.333 63.021 C 112.333 62.917,112.515 62.673,112.737 62.481 C 112.958 62.288,113.189 61.935,113.248 61.697 C 113.308 61.460,113.496 61.168,113.665 61.049 C 113.835 60.930,114.023 60.608,114.083 60.333 C 114.144 60.058,114.257 59.833,114.335 59.833 C 114.414 59.833,114.530 59.665,114.595 59.458 C 114.659 59.252,114.758 59.046,114.814 59.000 C 115.053 58.806,115.500 57.838,115.500 57.516 C 115.500 57.324,115.572 57.167,115.659 57.167 C 115.747 57.167,115.870 56.885,115.933 56.542 C 115.996 56.198,116.094 55.879,116.149 55.833 C 116.391 55.634,116.669 54.964,116.768 54.341 C 116.827 53.970,116.941 53.667,117.021 53.667 C 117.101 53.667,117.167 53.404,117.167 53.083 C 117.167 52.762,117.236 52.500,117.320 52.500 C 117.404 52.500,117.527 51.994,117.592 51.375 C 117.658 50.756,117.795 50.196,117.897 50.131 C 118.160 49.963,118.160 38.870,117.897 38.702 C 117.795 38.637,117.658 38.078,117.592 37.460 C 117.527 36.842,117.405 36.294,117.320 36.242 C 117.236 36.190,117.167 35.926,117.167 35.657 C 117.167 35.387,117.099 35.167,117.016 35.167 C 116.933 35.167,116.813 34.792,116.750 34.333 C 116.687 33.875,116.567 33.500,116.484 33.500 C 116.401 33.500,116.333 33.387,116.333 33.250 C 116.333 33.112,116.268 33.000,116.188 33.000 C 116.108 33.000,115.995 32.700,115.936 32.333 C 115.877 31.967,115.765 31.667,115.686 31.667 C 115.607 31.667,115.495 31.367,115.436 31.000 C 115.377 30.633,115.255 30.333,115.165 30.333 C 115.074 30.333,115.000 30.183,115.000 30.000 C 115.000 29.817,114.943 29.667,114.873 29.667 C 114.803 29.667,114.672 29.520,114.581 29.342 C 113.829 27.857,113.617 27.500,113.485 27.500 C 113.402 27.500,113.333 27.385,113.333 27.245 C 113.333 27.104,113.221 26.946,113.083 26.894 C 112.946 26.841,112.833 26.664,112.833 26.500 C 112.833 26.336,112.721 26.159,112.583 26.106 C 112.446 26.054,112.333 25.928,112.333 25.827 C 112.333 25.726,112.240 25.538,112.125 25.411 C 111.665 24.898,111.500 24.676,111.500 24.570 C 111.500 24.508,111.125 24.095,110.667 23.651 C 110.208 23.207,109.833 22.780,109.833 22.703 C 109.833 22.625,109.496 22.267,109.084 21.906 C 108.672 21.545,107.929 20.856,107.432 20.375 C 106.935 19.894,106.480 19.500,106.419 19.500 C 106.359 19.500,106.205 19.406,106.077 19.292 C 105.604 18.867,105.410 18.730,105.125 18.622 C 104.965 18.561,104.833 18.433,104.833 18.339 C 104.833 18.244,104.691 18.167,104.518 18.167 C 104.344 18.167,104.159 18.054,104.106 17.917 C 104.054 17.779,103.896 17.667,103.755 17.667 C 103.615 17.667,103.500 17.604,103.500 17.528 C 103.500 17.371,101.501 16.333,101.198 16.333 C 101.089 16.333,101.000 16.258,101.000 16.167 C 101.000 16.075,100.888 16.000,100.750 16.000 C 100.612 16.000,100.500 15.928,100.500 15.841 C 100.500 15.753,100.237 15.633,99.917 15.572 C 99.596 15.512,99.333 15.397,99.333 15.317 C 99.333 15.236,99.033 15.123,98.667 15.064 C 98.300 15.005,98.000 14.892,98.000 14.812 C 98.000 14.732,97.888 14.667,97.750 14.667 C 97.612 14.667,97.500 14.597,97.500 14.512 C 97.500 14.427,97.087 14.306,96.583 14.243 C 96.079 14.180,95.667 14.075,95.667 14.010 C 95.667 13.888,94.085 13.524,92.917 13.377 C 92.550 13.331,92.201 13.216,92.141 13.121 C 92.030 12.946,84.011 12.805,82.125 12.945 M173.333 13.343 C 173.333 13.563,174.173 14.521,175.667 16.006 C 176.950 17.282,178.000 18.390,178.000 18.468 C 178.000 18.547,178.206 18.799,178.458 19.029 C 178.710 19.258,179.120 19.664,179.368 19.931 C 179.616 20.198,179.896 20.492,179.990 20.583 C 180.084 20.675,180.872 21.462,181.741 22.333 C 182.610 23.204,183.433 24.010,183.570 24.125 C 183.977 24.465,208.099 24.425,208.440 24.083 C 208.644 23.880,209.245 23.833,211.679 23.833 L 214.667 23.833 214.667 18.667 L 214.667 13.500 208.542 13.494 C 203.546 13.489,202.340 13.444,202.000 13.250 C 201.648 13.049,199.389 13.011,187.458 13.006 L 173.333 13.000 173.333 13.343 M112.000 13.520 C 112.000 13.625,112.263 13.958,112.583 14.261 C 112.904 14.563,113.167 14.879,113.167 14.961 C 113.167 15.044,113.373 15.308,113.625 15.548 C 113.877 15.788,114.288 16.194,114.539 16.451 C 114.789 16.707,115.070 16.992,115.162 17.083 C 115.874 17.790,116.667 18.672,116.667 18.757 C 116.667 18.814,117.454 19.648,118.417 20.610 C 119.379 21.573,120.167 22.417,120.167 22.486 C 120.167 22.556,120.544 23.000,121.005 23.473 L 121.843 24.333 130.005 24.333 C 134.626 24.333,138.167 24.397,138.167 24.481 C 138.167 24.562,138.579 24.680,139.083 24.743 C 139.587 24.806,140.000 24.915,140.000 24.985 C 140.000 25.055,140.412 25.253,140.917 25.424 C 141.421 25.595,141.833 25.787,141.833 25.849 C 141.833 25.912,142.096 26.012,142.417 26.072 C 142.737 26.133,143.000 26.253,143.000 26.341 C 143.000 26.428,143.112 26.500,143.250 26.500 C 143.387 26.500,143.500 26.574,143.500 26.663 C 143.500 26.753,143.688 26.874,143.917 26.932 C 144.146 26.989,144.333 27.103,144.333 27.185 C 144.333 27.266,144.446 27.333,144.584 27.333 C 144.723 27.333,144.999 27.521,145.198 27.750 C 145.397 27.979,145.634 28.167,145.724 28.167 C 145.891 28.167,146.917 29.140,148.958 31.236 C 149.348 31.636,149.667 32.047,149.667 32.148 C 149.667 32.250,149.725 32.333,149.795 32.333 C 149.866 32.333,150.066 32.596,150.238 32.917 C 150.411 33.237,150.616 33.500,150.693 33.500 C 150.770 33.500,150.833 33.607,150.833 33.738 C 150.833 33.869,150.928 34.075,151.043 34.196 C 151.158 34.318,151.402 34.735,151.585 35.123 C 151.767 35.512,151.966 35.830,152.027 35.831 C 152.088 35.832,152.188 36.133,152.250 36.500 C 152.312 36.867,152.431 37.167,152.515 37.167 C 152.598 37.167,152.667 37.317,152.667 37.500 C 152.667 37.683,152.735 37.833,152.818 37.833 C 152.901 37.833,153.022 38.227,153.088 38.708 C 153.153 39.190,153.274 39.626,153.356 39.678 C 153.439 39.731,153.553 40.389,153.611 41.142 C 153.669 41.895,153.781 42.551,153.858 42.599 C 154.046 42.715,154.042 47.000,153.855 47.000 C 153.775 47.000,153.657 47.600,153.593 48.333 C 153.529 49.067,153.416 49.667,153.341 49.667 C 153.266 49.667,153.154 50.079,153.091 50.583 C 153.028 51.087,152.925 51.500,152.862 51.500 C 152.727 51.500,152.397 52.231,152.241 52.875 C 152.180 53.127,152.064 53.333,151.982 53.333 C 151.900 53.333,151.833 53.440,151.833 53.570 C 151.833 53.841,151.351 54.791,151.042 55.129 C 150.927 55.255,150.833 55.448,150.833 55.558 C 150.833 55.669,150.683 55.868,150.500 56.000 C 150.317 56.132,150.167 56.339,150.167 56.459 C 150.167 56.579,150.054 56.720,149.917 56.773 C 149.779 56.826,149.667 56.977,149.667 57.110 C 149.667 57.414,146.144 60.932,145.697 61.074 C 145.514 61.132,145.322 61.289,145.271 61.423 C 145.219 61.557,145.079 61.667,144.959 61.667 C 144.839 61.667,144.632 61.817,144.500 62.000 C 144.368 62.183,144.188 62.333,144.101 62.333 C 143.855 62.333,141.757 63.377,141.694 63.531 C 141.664 63.606,141.345 63.714,140.986 63.772 C 140.627 63.829,140.333 63.941,140.333 64.021 C 140.333 64.101,140.183 64.167,140.000 64.167 C 139.817 64.167,139.667 64.234,139.667 64.317 C 139.667 64.400,139.217 64.519,138.667 64.583 C 138.117 64.647,137.667 64.767,137.667 64.850 C 137.667 64.937,134.338 65.000,129.739 65.000 L 121.812 65.000 120.573 66.255 C 119.891 66.946,119.333 67.566,119.333 67.634 C 119.333 67.702,119.145 67.943,118.915 68.170 C 118.685 68.397,118.404 68.679,118.290 68.796 C 118.176 68.913,117.690 69.410,117.208 69.899 C 116.727 70.389,116.333 70.836,116.333 70.893 C 116.333 70.950,115.658 71.681,114.833 72.518 C 114.008 73.355,113.333 74.097,113.333 74.167 C 113.333 74.237,113.027 74.600,112.653 74.974 C 111.290 76.337,110.440 76.244,124.743 76.293 C 133.068 76.321,137.455 76.278,137.566 76.168 C 137.658 76.075,138.056 76.000,138.450 76.000 C 138.844 76.000,139.167 75.934,139.167 75.853 C 139.167 75.772,139.729 75.653,140.417 75.589 C 141.104 75.524,141.667 75.403,141.667 75.319 C 141.667 75.235,141.892 75.167,142.167 75.167 C 142.442 75.167,142.667 75.099,142.667 75.016 C 142.667 74.933,143.042 74.813,143.500 74.750 C 143.958 74.687,144.333 74.577,144.333 74.506 C 144.333 74.434,144.633 74.328,145.000 74.269 C 145.367 74.211,145.667 74.089,145.667 73.998 C 145.667 73.907,145.779 73.833,145.917 73.833 C 146.054 73.833,146.167 73.768,146.167 73.688 C 146.167 73.608,146.467 73.495,146.833 73.436 C 147.200 73.377,147.500 73.270,147.500 73.198 C 147.500 73.126,147.767 72.970,148.094 72.852 C 148.421 72.734,148.729 72.531,148.779 72.402 C 148.828 72.273,149.014 72.167,149.192 72.167 C 149.370 72.167,149.703 71.979,149.932 71.750 C 150.161 71.521,150.460 71.333,150.596 71.333 C 150.732 71.333,150.884 71.228,150.934 71.098 C 150.984 70.969,151.206 70.818,151.429 70.762 C 151.651 70.706,151.833 70.587,151.833 70.497 C 151.833 70.407,151.914 70.333,152.012 70.333 C 152.110 70.333,152.295 70.240,152.423 70.125 C 152.910 69.689,153.156 69.500,153.238 69.500 C 153.368 69.500,158.000 64.883,158.000 64.754 C 158.000 64.693,158.094 64.538,158.208 64.411 C 158.670 63.896,158.833 63.675,158.833 63.568 C 158.833 63.506,159.002 63.291,159.208 63.092 C 159.648 62.666,159.971 62.199,160.108 61.792 C 160.161 61.631,160.272 61.500,160.353 61.500 C 160.434 61.500,160.500 61.393,160.500 61.262 C 160.500 61.131,160.597 60.925,160.715 60.804 C 160.968 60.544,161.500 59.446,161.500 59.183 C 161.500 59.082,161.569 59.000,161.653 59.000 C 161.738 59.000,161.856 58.775,161.917 58.500 C 161.977 58.225,162.096 58.000,162.180 58.000 C 162.264 58.000,162.333 57.850,162.333 57.667 C 162.333 57.483,162.402 57.333,162.485 57.333 C 162.569 57.333,162.688 57.033,162.750 56.667 C 162.812 56.300,162.926 56.000,163.004 56.000 C 163.082 56.000,163.197 55.663,163.259 55.250 C 163.321 54.837,163.438 54.500,163.519 54.500 C 163.600 54.500,163.667 54.237,163.667 53.917 C 163.667 53.596,163.736 53.333,163.820 53.333 C 163.904 53.333,164.026 52.846,164.089 52.250 C 164.153 51.654,164.272 51.167,164.353 51.167 C 164.434 51.167,164.500 50.844,164.500 50.450 C 164.500 50.056,164.594 49.640,164.708 49.525 C 164.865 49.368,164.917 48.164,164.917 44.667 C 164.917 41.169,164.865 39.965,164.708 39.808 C 164.594 39.694,164.500 39.315,164.500 38.967 C 164.500 38.618,164.435 38.333,164.355 38.333 C 164.275 38.333,164.158 37.808,164.095 37.167 C 164.032 36.525,163.909 36.000,163.823 36.000 C 163.737 36.000,163.667 35.813,163.667 35.583 C 163.667 35.354,163.599 35.167,163.516 35.167 C 163.433 35.167,163.313 34.792,163.250 34.333 C 163.187 33.875,163.077 33.500,163.006 33.500 C 162.934 33.500,162.828 33.200,162.769 32.833 C 162.711 32.467,162.589 32.167,162.498 32.167 C 162.407 32.167,162.333 32.054,162.333 31.917 C 162.333 31.779,162.267 31.667,162.185 31.667 C 162.104 31.667,161.988 31.404,161.928 31.083 C 161.867 30.762,161.753 30.500,161.672 30.500 C 161.592 30.500,161.477 30.275,161.417 30.000 C 161.356 29.725,161.255 29.500,161.193 29.500 C 161.130 29.500,160.949 29.200,160.790 28.833 C 160.631 28.467,160.426 28.167,160.334 28.167 C 160.242 28.167,160.167 28.028,160.167 27.858 C 160.167 27.688,159.979 27.346,159.750 27.099 C 159.521 26.852,159.333 26.551,159.333 26.431 C 159.333 26.311,159.146 26.073,158.917 25.900 C 158.688 25.728,158.500 25.499,158.500 25.390 C 158.500 25.281,158.275 24.967,158.000 24.692 C 157.725 24.417,157.500 24.141,157.500 24.078 C 157.500 23.934,153.894 20.333,153.750 20.333 C 153.692 20.333,153.368 20.071,153.031 19.750 C 152.693 19.430,152.285 19.125,152.125 19.072 C 151.965 19.020,151.833 18.916,151.833 18.840 C 151.833 18.765,151.646 18.656,151.417 18.598 C 151.188 18.541,151.000 18.420,151.000 18.330 C 151.000 18.240,150.887 18.167,150.750 18.167 C 150.612 18.167,150.500 18.097,150.500 18.011 C 150.500 17.926,150.337 17.804,150.138 17.741 C 149.939 17.678,149.621 17.482,149.433 17.306 C 149.244 17.131,148.920 16.944,148.712 16.892 C 148.504 16.840,148.333 16.736,148.333 16.662 C 148.333 16.587,148.108 16.477,147.833 16.417 C 147.558 16.356,147.333 16.238,147.333 16.153 C 147.333 16.069,147.183 16.000,147.000 16.000 C 146.817 16.000,146.667 15.931,146.667 15.847 C 146.667 15.762,146.442 15.644,146.167 15.583 C 145.892 15.523,145.667 15.412,145.667 15.336 C 145.667 15.260,145.292 15.146,144.833 15.083 C 144.375 15.020,144.000 14.901,144.000 14.818 C 144.000 14.735,143.813 14.667,143.583 14.667 C 143.354 14.667,143.167 14.598,143.167 14.515 C 143.167 14.431,142.848 14.309,142.458 14.244 C 142.069 14.179,141.712 14.076,141.667 14.015 C 141.233 13.439,112.000 12.951,112.000 13.520 M87.500 23.641 C 87.500 23.719,88.344 23.831,89.374 23.890 C 90.405 23.949,91.274 24.073,91.305 24.165 C 91.336 24.258,91.542 24.333,91.764 24.333 C 91.985 24.333,92.167 24.399,92.167 24.479 C 92.167 24.558,92.542 24.673,93.000 24.734 C 93.458 24.795,93.833 24.917,93.833 25.006 C 93.833 25.094,93.979 25.167,94.157 25.167 C 94.335 25.167,94.523 25.236,94.575 25.321 C 94.628 25.405,94.895 25.524,95.169 25.584 C 95.443 25.644,95.667 25.756,95.667 25.833 C 95.667 25.910,95.892 26.023,96.167 26.083 C 96.442 26.144,96.667 26.253,96.667 26.327 C 96.667 26.401,96.798 26.505,96.958 26.559 C 97.292 26.671,97.798 26.988,98.130 27.292 C 98.255 27.406,98.446 27.500,98.556 27.500 C 98.665 27.500,98.895 27.688,99.067 27.917 C 99.239 28.146,99.475 28.333,99.590 28.333 C 99.864 28.333,102.667 31.136,102.667 31.410 C 102.667 31.525,102.854 31.761,103.083 31.933 C 103.313 32.105,103.500 32.335,103.500 32.444 C 103.500 32.554,103.594 32.745,103.708 32.870 C 104.012 33.202,104.329 33.708,104.441 34.042 C 104.495 34.202,104.599 34.333,104.673 34.333 C 104.747 34.333,104.856 34.558,104.917 34.833 C 104.977 35.108,105.077 35.334,105.138 35.334 C 105.200 35.334,105.387 35.691,105.554 36.126 C 105.720 36.561,105.925 37.045,106.009 37.201 C 106.092 37.357,106.209 37.789,106.268 38.159 C 106.327 38.530,106.441 38.833,106.521 38.833 C 106.601 38.833,106.667 39.090,106.667 39.403 C 106.667 39.716,106.760 40.003,106.875 40.042 C 107.034 40.095,107.083 41.120,107.083 44.417 C 107.083 47.713,107.034 48.739,106.875 48.792 C 106.760 48.830,106.667 49.080,106.667 49.347 C 106.667 49.615,106.599 49.833,106.516 49.833 C 106.433 49.833,106.313 50.208,106.250 50.667 C 106.187 51.125,106.083 51.500,106.019 51.500 C 105.955 51.500,105.762 51.913,105.591 52.417 C 105.419 52.921,105.216 53.333,105.140 53.333 C 105.063 53.333,105.000 53.480,105.000 53.658 C 105.000 53.837,104.906 54.043,104.791 54.117 C 104.677 54.190,104.471 54.475,104.335 54.750 C 104.018 55.391,103.453 56.234,103.292 56.306 C 103.223 56.336,103.167 56.433,103.167 56.521 C 103.167 56.719,102.928 57.013,102.125 57.802 C 101.782 58.140,101.500 58.494,101.500 58.588 C 101.500 58.760,100.912 59.333,100.735 59.333 C 100.683 59.333,100.424 59.540,100.159 59.792 C 99.488 60.430,99.197 60.667,99.082 60.667 C 99.028 60.667,98.819 60.844,98.617 61.060 C 98.415 61.277,98.081 61.507,97.875 61.571 C 97.669 61.636,97.500 61.759,97.500 61.845 C 97.500 61.930,97.388 62.000,97.250 62.000 C 97.112 62.000,97.000 62.075,97.000 62.167 C 97.000 62.258,96.912 62.333,96.805 62.333 C 96.567 62.333,94.450 63.344,94.333 63.513 C 94.287 63.580,93.894 63.687,93.458 63.753 C 93.023 63.818,92.667 63.938,92.667 64.019 C 92.667 64.100,92.485 64.167,92.264 64.167 C 92.042 64.167,91.836 64.241,91.806 64.332 C 91.775 64.423,91.169 64.547,90.458 64.607 C 89.748 64.667,89.167 64.780,89.167 64.858 C 89.167 64.936,88.004 65.000,86.583 65.000 C 85.162 65.000,84.000 64.933,84.000 64.851 C 84.000 64.769,83.400 64.648,82.667 64.583 C 81.933 64.518,81.333 64.398,81.333 64.316 C 81.333 64.234,81.146 64.167,80.917 64.167 C 80.688 64.167,80.500 64.096,80.500 64.010 C 80.500 63.924,80.162 63.803,79.750 63.741 C 79.337 63.679,79.000 63.562,79.000 63.481 C 79.000 63.400,78.850 63.333,78.667 63.333 C 78.483 63.333,78.333 63.264,78.333 63.180 C 78.333 63.096,78.108 62.977,77.833 62.917 C 77.558 62.856,77.333 62.744,77.333 62.667 C 77.333 62.590,77.108 62.477,76.833 62.417 C 76.558 62.356,76.333 62.250,76.333 62.180 C 76.333 62.110,76.071 61.911,75.750 61.738 C 75.429 61.566,75.167 61.374,75.167 61.314 C 75.167 61.253,74.979 61.156,74.750 61.098 C 74.521 61.041,74.333 60.920,74.333 60.830 C 74.333 60.740,74.257 60.667,74.163 60.667 C 73.989 60.667,70.333 57.084,70.333 56.913 C 70.333 56.862,70.183 56.658,69.999 56.461 C 69.816 56.264,69.509 55.779,69.318 55.384 C 69.127 54.990,68.908 54.667,68.832 54.667 C 68.756 54.667,68.644 54.442,68.583 54.167 C 68.523 53.892,68.410 53.667,68.333 53.667 C 68.256 53.667,68.144 53.442,68.083 53.167 C 68.023 52.892,67.904 52.667,67.820 52.667 C 67.736 52.667,67.667 52.517,67.667 52.333 C 67.667 52.150,67.600 52.000,67.519 52.000 C 67.438 52.000,67.321 51.663,67.259 51.250 C 67.197 50.837,67.076 50.500,66.990 50.500 C 66.904 50.500,66.833 50.313,66.833 50.083 C 66.833 49.854,66.763 49.667,66.678 49.667 C 66.593 49.667,66.471 49.067,66.407 48.333 C 66.343 47.600,66.225 47.000,66.145 47.000 C 66.065 47.000,66.000 45.762,66.000 44.250 C 66.000 42.737,66.065 41.500,66.145 41.500 C 66.225 41.500,66.342 40.975,66.405 40.333 C 66.468 39.692,66.591 39.167,66.677 39.167 C 66.763 39.167,66.833 38.904,66.833 38.583 C 66.833 38.262,66.902 38.000,66.985 38.000 C 67.069 38.000,67.188 37.700,67.250 37.333 C 67.312 36.967,67.431 36.667,67.515 36.667 C 67.598 36.667,67.667 36.479,67.667 36.250 C 67.667 36.021,67.736 35.833,67.820 35.833 C 67.904 35.833,68.023 35.608,68.083 35.333 C 68.144 35.058,68.254 34.833,68.329 34.833 C 68.403 34.833,68.511 34.646,68.568 34.417 C 68.626 34.188,68.747 34.000,68.837 34.000 C 68.926 34.000,69.000 33.887,69.000 33.750 C 69.000 33.612,69.074 33.500,69.163 33.500 C 69.253 33.500,69.374 33.313,69.432 33.083 C 69.489 32.854,69.598 32.667,69.674 32.667 C 69.749 32.667,69.859 32.515,69.918 32.329 C 69.977 32.144,70.282 31.742,70.596 31.437 C 70.910 31.132,71.167 30.836,71.167 30.779 C 71.167 30.619,72.959 28.833,73.119 28.833 C 73.196 28.833,73.383 28.702,73.535 28.542 C 73.907 28.147,74.298 27.833,74.418 27.833 C 74.472 27.833,74.681 27.665,74.883 27.458 C 75.085 27.252,75.531 26.940,75.875 26.765 C 76.219 26.591,76.500 26.384,76.500 26.307 C 76.500 26.230,76.594 26.164,76.708 26.161 C 76.823 26.158,77.217 26.010,77.583 25.833 C 77.950 25.656,78.344 25.509,78.458 25.506 C 78.573 25.503,78.667 25.425,78.667 25.333 C 78.667 25.242,78.854 25.167,79.083 25.167 C 79.313 25.167,79.500 25.100,79.500 25.019 C 79.500 24.938,79.836 24.821,80.246 24.759 C 80.656 24.698,81.036 24.577,81.089 24.490 C 81.143 24.404,81.401 24.333,81.663 24.333 C 81.925 24.333,82.165 24.256,82.196 24.162 C 82.227 24.068,83.021 23.944,83.960 23.887 C 84.899 23.830,85.667 23.719,85.667 23.641 C 85.667 23.564,86.079 23.500,86.583 23.500 C 87.087 23.500,87.500 23.564,87.500 23.641 M173.333 44.667 L 173.333 50.167 194.167 50.167 L 215.000 50.167 215.000 44.667 L 215.000 39.167 194.167 39.167 L 173.333 39.167 173.333 44.667 M183.132 65.258 C 183.013 65.400,182.411 66.018,181.792 66.633 C 181.174 67.247,180.667 67.812,180.667 67.887 C 180.667 67.963,179.017 69.669,177.000 71.678 C 174.653 74.016,173.333 75.451,173.333 75.665 C 173.333 75.999,173.418 76.000,194.167 76.000 L 215.000 76.000 215.000 70.500 L 215.000 65.000 199.173 65.000 C 185.096 65.000,183.323 65.029,183.132 65.258 M0.167 128.083 L 0.167 156.000 199.583 156.000 L 399.000 156.000 399.000 128.083 L 399.000 100.167 199.583 100.167 L 0.167 100.167 0.167 128.083 M398.000 128.167 L 398.000 155.000 199.583 155.000 L 1.167 155.000 1.167 128.167 L 1.167 101.333 199.583 101.333 L 398.000 101.333 398.000 128.167 M327.167 111.643 C 327.167 111.722,326.742 111.830,326.224 111.884 C 325.705 111.938,325.237 112.054,325.182 112.142 C 325.127 112.230,324.801 112.355,324.458 112.420 C 324.114 112.484,323.833 112.604,323.833 112.685 C 323.833 112.767,323.691 112.833,323.518 112.833 C 323.344 112.833,323.159 112.946,323.106 113.083 C 323.054 113.221,322.902 113.333,322.769 113.333 C 322.230 113.333,319.667 115.897,319.667 116.436 C 319.667 116.569,319.554 116.720,319.417 116.773 C 319.279 116.826,319.167 117.042,319.167 117.254 C 319.167 117.466,319.073 117.670,318.958 117.708 C 318.409 117.892,318.794 123.833,319.356 123.833 C 319.415 123.833,319.511 124.021,319.568 124.250 C 319.626 124.479,319.747 124.667,319.837 124.667 C 319.926 124.667,320.000 124.767,320.000 124.889 C 320.000 125.011,320.206 125.308,320.458 125.549 C 321.032 126.096,321.237 126.301,321.785 126.875 C 322.025 127.127,322.322 127.333,322.444 127.333 C 322.567 127.333,322.667 127.407,322.667 127.497 C 322.667 127.587,322.854 127.707,323.083 127.765 C 323.313 127.822,323.500 127.936,323.500 128.018 C 323.500 128.100,323.612 128.167,323.750 128.167 C 323.887 128.167,324.000 128.241,324.000 128.331 C 324.000 128.422,324.300 128.544,324.667 128.603 C 325.033 128.661,325.333 128.766,325.333 128.836 C 325.333 129.182,326.869 129.191,327.191 128.846 C 327.368 128.656,327.570 128.500,327.639 128.500 C 327.708 128.500,328.072 128.219,328.448 127.875 C 328.824 127.531,329.372 127.063,329.667 126.833 C 330.416 126.250,330.667 125.999,330.667 125.833 C 330.667 125.754,330.817 125.642,331.000 125.583 C 331.688 125.365,331.375 125.000,330.500 125.000 C 330.042 125.000,329.667 124.925,329.667 124.833 C 329.667 124.742,329.404 124.667,329.083 124.667 C 328.762 124.667,328.500 124.598,328.500 124.513 C 328.500 124.429,328.275 124.310,328.000 124.250 C 327.725 124.190,327.500 124.071,327.500 123.987 C 327.500 123.902,327.393 123.833,327.262 123.833 C 326.144 123.833,324.423 120.474,325.089 119.593 C 325.223 119.415,325.333 119.134,325.333 118.968 C 325.333 118.802,325.411 118.667,325.505 118.667 C 325.600 118.667,325.727 118.535,325.788 118.375 C 325.929 118.001,326.260 117.667,326.488 117.667 C 326.586 117.667,326.667 117.593,326.667 117.503 C 326.667 117.413,326.854 117.293,327.083 117.235 C 327.313 117.178,327.500 117.069,327.500 116.994 C 327.500 116.919,327.912 116.806,328.417 116.743 C 328.921 116.680,329.333 116.562,329.333 116.481 C 329.333 116.400,329.708 116.333,330.167 116.333 C 330.625 116.333,331.000 116.398,331.000 116.477 C 331.000 116.556,331.393 116.667,331.874 116.724 C 332.355 116.781,332.773 116.904,332.805 116.997 C 332.836 117.090,333.007 117.167,333.186 117.167 C 333.364 117.167,333.554 117.279,333.606 117.417 C 333.659 117.554,333.807 117.667,333.934 117.667 C 334.062 117.667,334.167 117.737,334.167 117.822 C 334.167 117.908,334.313 118.024,334.491 118.081 C 334.670 118.137,334.868 118.345,334.930 118.542 C 334.993 118.740,335.147 119.004,335.272 119.129 C 335.397 119.255,335.500 119.464,335.500 119.595 C 335.500 119.726,335.575 119.833,335.667 119.833 C 335.758 119.833,335.833 120.013,335.833 120.232 C 335.833 120.981,336.755 121.047,337.341 120.340 C 337.566 120.069,337.826 119.844,337.918 119.840 C 338.137 119.831,339.000 119.031,339.000 118.838 C 339.000 118.756,339.169 118.636,339.375 118.571 C 340.182 118.317,341.446 116.667,340.833 116.667 C 340.742 116.667,340.667 116.549,340.667 116.405 C 340.667 116.085,338.223 113.667,337.900 113.667 C 337.771 113.667,337.667 113.591,337.667 113.500 C 337.667 113.408,337.367 113.202,337.000 113.044 C 336.633 112.885,336.333 112.701,336.333 112.635 C 336.333 112.569,336.052 112.463,335.708 112.400 C 335.365 112.337,335.042 112.221,334.991 112.143 C 334.940 112.065,334.433 111.953,333.866 111.894 C 333.298 111.834,332.833 111.722,332.833 111.643 C 332.833 111.564,331.558 111.500,330.000 111.500 C 328.442 111.500,327.167 111.565,327.167 111.643 M104.167 112.208 C 104.167 112.426,104.307 112.755,104.480 112.940 C 104.652 113.124,104.849 113.457,104.919 113.679 C 104.988 113.902,105.091 114.121,105.147 114.167 C 105.312 114.301,105.668 114.892,105.774 115.208 C 105.828 115.369,105.933 115.500,106.006 115.500 C 106.080 115.500,106.190 115.725,106.250 116.000 C 106.310 116.275,106.493 116.593,106.656 116.708 C 106.819 116.823,107.010 117.104,107.080 117.333 C 107.344 118.196,107.089 118.167,114.354 118.167 C 118.785 118.167,121.167 118.225,121.167 118.333 C 121.167 118.425,121.349 118.500,121.571 118.500 C 121.794 118.500,122.089 118.612,122.226 118.750 C 122.364 118.888,122.520 119.000,122.574 119.000 C 122.774 119.000,123.833 120.204,123.833 120.431 C 123.833 120.561,123.891 120.667,123.961 120.667 C 124.415 120.667,124.934 124.148,124.519 124.405 C 124.438 124.455,124.323 124.752,124.264 125.065 C 124.206 125.377,124.047 125.725,123.912 125.837 C 123.777 125.949,123.667 126.108,123.667 126.190 C 123.667 126.463,122.257 127.776,121.708 128.013 C 121.410 128.142,121.167 128.305,121.167 128.374 C 121.167 128.443,119.546 128.500,117.565 128.500 L 113.963 128.500 114.080 129.125 C 114.145 129.468,114.247 129.787,114.307 129.833 C 114.367 129.879,114.560 130.198,114.735 130.542 C 114.909 130.885,115.110 131.167,115.180 131.167 C 115.250 131.167,115.356 131.392,115.417 131.667 C 115.477 131.942,115.594 132.167,115.677 132.167 C 115.759 132.167,115.874 132.354,115.932 132.583 C 115.989 132.813,116.103 133.000,116.185 133.000 C 116.266 133.000,116.333 133.112,116.333 133.250 C 116.333 133.387,116.400 133.500,116.482 133.500 C 116.564 133.500,116.678 133.688,116.735 133.917 C 116.793 134.146,116.913 134.333,117.003 134.333 C 117.093 134.333,117.167 134.446,117.167 134.583 C 117.167 134.721,117.234 134.833,117.315 134.833 C 117.397 134.833,117.511 135.021,117.568 135.250 C 117.626 135.479,117.747 135.667,117.837 135.667 C 117.926 135.667,118.000 135.749,118.000 135.850 C 118.000 136.159,118.553 137.242,118.783 137.383 C 118.902 137.457,119.000 137.663,119.000 137.842 C 119.000 138.020,119.066 138.167,119.147 138.167 C 119.228 138.167,119.339 138.298,119.392 138.458 C 119.503 138.788,119.860 139.374,120.028 139.502 C 120.090 139.548,120.192 139.792,120.255 140.043 C 120.318 140.295,120.425 140.500,120.492 140.500 C 120.559 140.500,120.757 140.780,120.932 141.122 C 121.107 141.465,121.344 141.845,121.458 141.968 C 121.573 142.090,121.667 142.298,121.667 142.429 C 121.667 142.560,121.742 142.667,121.833 142.667 C 121.925 142.667,122.000 142.779,122.000 142.917 C 122.000 143.054,122.067 143.167,122.149 143.167 C 122.230 143.167,122.344 143.354,122.402 143.583 C 122.459 143.813,122.574 144.000,122.657 144.000 C 122.739 144.000,122.856 144.225,122.917 144.500 C 122.977 144.775,123.160 145.093,123.323 145.208 C 123.486 145.323,123.672 145.585,123.737 145.792 C 123.918 146.363,130.833 146.388,130.833 145.817 C 130.833 145.444,130.339 144.500,130.144 144.500 C 130.079 144.500,129.977 144.275,129.917 144.000 C 129.856 143.725,129.755 143.500,129.691 143.500 C 129.628 143.500,129.428 143.219,129.247 142.875 C 129.066 142.531,128.824 142.151,128.709 142.030 C 128.594 141.909,128.500 141.702,128.500 141.571 C 128.500 141.440,128.425 141.333,128.333 141.333 C 128.242 141.333,128.167 141.221,128.167 141.083 C 128.167 140.946,128.092 140.833,128.000 140.833 C 127.908 140.833,127.833 140.726,127.833 140.595 C 127.833 140.464,127.731 140.255,127.605 140.129 C 127.480 140.004,127.319 139.717,127.248 139.492 C 127.177 139.267,126.985 138.966,126.821 138.823 C 126.657 138.681,126.472 138.365,126.411 138.122 C 126.351 137.879,126.195 137.593,126.067 137.486 C 125.938 137.380,125.833 137.189,125.833 137.063 C 125.833 136.937,125.758 136.833,125.667 136.833 C 125.575 136.833,125.500 136.683,125.500 136.500 C 125.500 136.317,125.425 136.167,125.333 136.167 C 125.242 136.167,125.167 136.052,125.167 135.911 C 125.167 135.771,125.054 135.613,124.917 135.560 C 124.779 135.508,124.667 135.322,124.667 135.149 C 124.667 134.975,124.592 134.833,124.500 134.833 C 124.408 134.833,124.333 134.730,124.333 134.604 C 124.333 134.477,124.221 134.281,124.083 134.167 C 123.668 133.822,123.800 133.521,124.417 133.406 C 124.737 133.345,125.000 133.230,125.000 133.148 C 125.000 133.067,125.112 133.000,125.250 133.000 C 125.388 133.000,125.500 132.930,125.500 132.845 C 125.500 132.759,125.658 132.639,125.850 132.578 C 126.256 132.449,128.158 130.514,128.799 129.578 C 129.149 129.067,129.500 128.334,129.500 128.113 C 129.500 127.975,129.576 127.836,129.670 127.805 C 129.763 127.773,129.886 127.355,129.943 126.874 C 130.000 126.393,130.111 126.000,130.190 126.000 C 130.269 126.000,130.333 125.625,130.333 125.167 C 130.333 124.708,130.408 124.333,130.500 124.333 C 130.596 124.333,130.667 123.809,130.667 123.093 C 130.667 122.411,130.592 121.807,130.500 121.750 C 130.408 121.693,130.333 121.314,130.333 120.907 C 130.333 120.500,130.268 120.167,130.188 120.167 C 130.109 120.167,130.003 119.813,129.955 119.380 C 129.906 118.948,129.784 118.567,129.683 118.533 C 129.582 118.500,129.500 118.321,129.500 118.137 C 129.500 117.779,129.003 116.833,128.815 116.833 C 128.754 116.833,128.656 116.646,128.598 116.417 C 128.541 116.188,128.420 116.000,128.330 116.000 C 128.240 116.000,128.167 115.928,128.167 115.840 C 128.167 115.485,125.574 113.167,125.176 113.167 C 125.079 113.167,125.000 113.092,125.000 113.000 C 125.000 112.908,124.850 112.833,124.667 112.833 C 124.483 112.833,124.333 112.765,124.333 112.681 C 124.333 112.598,124.015 112.476,123.625 112.411 C 123.235 112.346,122.863 112.208,122.798 112.105 C 122.713 111.970,120.059 111.902,113.423 111.865 L 104.167 111.813 104.167 112.208 M150.205 114.958 L 150.250 118.083 164.625 118.126 L 179.000 118.169 179.000 115.001 L 179.000 111.833 164.580 111.833 L 150.159 111.833 150.205 114.958 M199.000 112.150 C 199.000 112.337,200.160 113.639,201.822 115.317 L 204.643 118.167 213.238 118.167 L 221.833 118.167 221.833 115.000 L 221.833 111.833 210.417 111.833 C 199.310 111.833,199.000 111.842,199.000 112.150 M241.500 116.296 C 241.500 120.171,241.529 120.620,241.792 120.871 C 241.952 121.025,242.167 121.238,242.270 121.346 C 242.440 121.525,245.323 124.413,245.772 124.854 C 246.348 125.421,246.941 126.016,247.117 126.203 C 247.227 126.321,247.415 126.508,247.534 126.620 C 247.653 126.732,247.835 126.910,247.938 127.015 C 248.042 127.120,248.352 127.431,248.627 127.706 C 248.902 127.981,249.202 128.281,249.294 128.373 C 249.385 128.465,249.685 128.765,249.960 129.040 C 250.235 129.315,250.525 129.604,250.605 129.684 C 250.794 129.871,252.629 131.706,252.816 131.895 C 252.896 131.975,253.185 132.265,253.460 132.540 C 253.735 132.815,254.044 133.125,254.147 133.228 C 255.844 134.942,256.993 136.000,257.160 136.000 C 257.275 136.000,259.506 133.862,262.120 131.250 C 264.733 128.637,266.900 126.500,266.935 126.500 C 266.971 126.500,267.000 130.850,267.000 136.167 L 267.000 145.833 270.083 145.833 L 273.167 145.833 273.167 128.917 C 273.167 109.345,273.384 111.128,271.255 113.250 C 270.566 113.938,269.943 114.500,269.872 114.500 C 269.800 114.500,269.428 114.819,269.045 115.208 C 268.661 115.598,268.261 116.001,268.154 116.105 C 268.047 116.209,267.747 116.509,267.485 116.772 C 267.224 117.035,266.914 117.342,266.797 117.454 C 266.396 117.836,266.153 118.083,265.701 118.567 C 265.453 118.832,265.153 119.132,265.034 119.233 C 264.915 119.334,264.727 119.513,264.617 119.630 C 264.382 119.881,263.603 120.662,263.297 120.954 C 263.179 121.066,262.999 121.243,262.895 121.349 C 262.791 121.454,262.491 121.753,262.228 122.015 C 261.965 122.276,261.658 122.586,261.546 122.703 C 261.434 122.821,261.257 123.001,261.151 123.105 C 261.046 123.209,260.747 123.509,260.485 123.772 C 260.224 124.035,259.914 124.342,259.797 124.454 C 259.679 124.566,259.499 124.743,259.395 124.849 C 259.291 124.954,258.991 125.253,258.728 125.515 C 258.465 125.776,258.160 126.086,258.050 126.203 C 257.939 126.321,257.741 126.506,257.608 126.616 C 257.476 126.725,257.339 126.901,257.304 127.005 C 257.269 127.110,253.820 123.777,249.639 119.598 C 245.458 115.419,241.917 112.000,241.769 112.000 C 241.528 112.000,241.500 112.454,241.500 116.296 M292.833 128.917 L 292.833 145.833 295.917 145.833 L 299.000 145.833 299.000 128.917 L 299.000 112.000 295.917 112.000 L 292.833 112.000 292.833 128.917 M74.162 112.621 C 73.864 112.971,73.333 114.056,73.333 114.317 C 73.333 114.418,73.264 114.500,73.180 114.500 C 73.096 114.500,72.977 114.725,72.917 115.000 C 72.856 115.275,72.738 115.500,72.653 115.500 C 72.569 115.500,72.500 115.612,72.500 115.750 C 72.500 115.888,72.433 116.000,72.352 116.000 C 72.270 116.000,72.155 116.263,72.094 116.583 C 72.034 116.904,71.915 117.167,71.829 117.167 C 71.743 117.167,71.626 117.354,71.568 117.583 C 71.511 117.813,71.397 118.000,71.315 118.000 C 71.234 118.000,71.167 118.112,71.167 118.250 C 71.167 118.388,71.098 118.500,71.013 118.500 C 70.929 118.500,70.810 118.725,70.750 119.000 C 70.690 119.275,70.571 119.500,70.487 119.500 C 70.402 119.500,70.333 119.650,70.333 119.833 C 70.333 120.017,70.264 120.167,70.180 120.167 C 70.096 120.167,69.977 120.392,69.917 120.667 C 69.856 120.942,69.738 121.167,69.653 121.167 C 69.569 121.167,69.500 121.274,69.500 121.405 C 69.500 121.536,69.406 121.743,69.292 121.866 C 68.958 122.224,68.500 123.111,68.500 123.401 C 68.500 123.547,68.431 123.667,68.347 123.667 C 68.262 123.667,68.144 123.892,68.083 124.167 C 68.023 124.442,67.904 124.667,67.820 124.667 C 67.736 124.667,67.667 124.779,67.667 124.917 C 67.667 125.054,67.595 125.167,67.508 125.167 C 67.420 125.167,67.299 125.429,67.239 125.750 C 67.179 126.071,67.063 126.333,66.981 126.333 C 66.900 126.333,66.833 126.446,66.833 126.583 C 66.833 126.721,66.760 126.833,66.670 126.833 C 66.580 126.833,66.459 127.021,66.402 127.250 C 66.344 127.479,66.236 127.667,66.162 127.667 C 66.087 127.667,65.977 127.892,65.917 128.167 C 65.856 128.442,65.755 128.667,65.693 128.667 C 65.569 128.667,65.000 129.899,65.000 130.168 C 65.000 130.259,64.931 130.333,64.847 130.333 C 64.762 130.333,64.647 130.544,64.590 130.801 C 64.534 131.058,64.340 131.375,64.161 131.504 C 63.981 131.634,63.833 131.813,63.833 131.902 C 63.833 132.128,62.776 134.238,62.630 134.304 C 62.564 134.333,62.462 134.615,62.403 134.929 C 62.344 135.243,62.230 135.500,62.148 135.500 C 62.067 135.500,62.000 135.612,62.000 135.750 C 62.000 135.887,61.926 136.000,61.837 136.000 C 61.747 136.000,61.626 136.188,61.568 136.417 C 61.511 136.646,61.403 136.833,61.329 136.833 C 61.254 136.833,61.144 137.058,61.083 137.333 C 61.023 137.608,60.922 137.833,60.859 137.833 C 60.735 137.833,60.167 139.065,60.167 139.334 C 60.167 139.426,60.098 139.500,60.013 139.500 C 59.929 139.500,59.810 139.725,59.750 140.000 C 59.690 140.275,59.571 140.500,59.487 140.500 C 59.402 140.500,59.333 140.612,59.333 140.750 C 59.333 140.887,59.260 141.000,59.170 141.000 C 59.080 141.000,58.959 141.188,58.902 141.417 C 58.844 141.646,58.730 141.833,58.649 141.833 C 58.567 141.833,58.500 141.983,58.500 142.167 C 58.500 142.350,58.431 142.500,58.347 142.500 C 58.262 142.500,58.144 142.725,58.083 143.000 C 58.023 143.275,57.910 143.500,57.833 143.500 C 57.756 143.500,57.644 143.725,57.583 144.000 C 57.523 144.275,57.404 144.500,57.320 144.500 C 57.236 144.500,57.167 144.650,57.167 144.833 C 57.167 145.017,57.092 145.167,57.000 145.167 C 56.908 145.167,56.833 145.317,56.833 145.500 C 56.833 145.823,56.944 145.833,60.500 145.833 C 63.523 145.833,64.167 145.793,64.167 145.601 C 64.167 145.473,64.279 145.326,64.417 145.273 C 64.554 145.220,64.667 145.025,64.667 144.839 C 64.667 144.652,64.734 144.500,64.815 144.500 C 64.897 144.500,65.015 144.295,65.078 144.043 C 65.142 143.792,65.243 143.548,65.305 143.502 C 65.516 143.341,66.000 142.365,66.000 142.099 C 66.000 141.953,66.069 141.833,66.153 141.833 C 66.238 141.833,66.356 141.608,66.417 141.333 C 66.477 141.058,66.596 140.833,66.680 140.833 C 66.764 140.833,66.833 140.721,66.833 140.583 C 66.833 140.446,66.903 140.333,66.989 140.333 C 67.074 140.333,67.197 140.165,67.261 139.958 C 67.326 139.752,67.428 139.546,67.489 139.500 C 67.644 139.384,68.167 138.240,68.167 138.016 C 68.167 137.916,68.236 137.833,68.320 137.833 C 68.404 137.833,68.523 137.608,68.583 137.333 C 68.644 137.058,68.762 136.833,68.847 136.833 C 68.931 136.833,69.000 136.683,69.000 136.500 C 69.000 136.317,69.067 136.167,69.149 136.167 C 69.230 136.167,69.344 135.979,69.402 135.750 C 69.459 135.521,69.574 135.333,69.657 135.333 C 69.739 135.333,69.856 135.108,69.917 134.833 C 69.977 134.558,70.096 134.333,70.180 134.333 C 70.264 134.333,70.333 134.221,70.333 134.083 C 70.333 133.946,70.405 133.833,70.492 133.833 C 70.580 133.833,70.701 133.571,70.761 133.250 C 70.821 132.929,70.937 132.667,71.019 132.667 C 71.100 132.667,71.167 132.554,71.167 132.417 C 71.167 132.279,71.236 132.167,71.320 132.167 C 71.404 132.167,71.523 131.942,71.583 131.667 C 71.644 131.392,71.757 131.167,71.835 131.167 C 71.914 131.167,72.030 130.998,72.095 130.792 C 72.159 130.585,72.262 130.379,72.323 130.333 C 72.478 130.217,73.000 129.073,73.000 128.850 C 73.000 128.749,73.069 128.667,73.153 128.667 C 73.238 128.667,73.356 128.442,73.417 128.167 C 73.477 127.892,73.577 127.667,73.639 127.667 C 73.701 127.667,73.856 127.423,73.984 127.125 C 74.444 126.052,74.887 125.940,75.086 126.847 C 75.145 127.115,75.261 127.333,75.343 127.333 C 75.426 127.333,75.541 127.521,75.598 127.750 C 75.656 127.979,75.770 128.167,75.851 128.167 C 75.933 128.167,76.000 128.279,76.000 128.417 C 76.000 128.554,76.072 128.667,76.159 128.667 C 76.247 128.667,76.367 128.929,76.428 129.250 C 76.488 129.571,76.598 129.833,76.672 129.833 C 76.746 129.833,76.856 130.058,76.917 130.333 C 76.977 130.608,77.096 130.833,77.180 130.833 C 77.264 130.833,77.333 130.946,77.333 131.083 C 77.333 131.221,77.400 131.333,77.482 131.333 C 77.564 131.333,77.678 131.521,77.735 131.750 C 77.793 131.979,77.913 132.167,78.003 132.167 C 78.093 132.167,78.167 132.241,78.167 132.332 C 78.167 132.617,78.739 133.833,78.873 133.833 C 78.943 133.833,79.000 133.946,79.000 134.083 C 79.000 134.298,79.512 134.333,82.605 134.333 L 86.211 134.333 86.116 133.627 C 86.058 133.199,85.884 132.810,85.676 132.641 C 85.486 132.487,85.284 132.130,85.228 131.847 C 85.171 131.565,85.065 131.333,84.992 131.333 C 84.919 131.333,84.810 131.108,84.750 130.833 C 84.690 130.558,84.571 130.333,84.487 130.333 C 84.402 130.333,84.333 130.221,84.333 130.083 C 84.333 129.946,84.258 129.833,84.167 129.833 C 84.075 129.833,83.997 129.702,83.993 129.542 C 83.989 129.381,83.800 128.950,83.573 128.583 C 83.347 128.217,83.116 127.785,83.061 127.625 C 83.006 127.465,82.901 127.333,82.827 127.333 C 82.753 127.333,82.644 127.108,82.583 126.833 C 82.523 126.558,82.422 126.333,82.359 126.333 C 82.235 126.333,81.667 125.101,81.667 124.832 C 81.667 124.741,81.600 124.667,81.518 124.667 C 81.436 124.667,81.322 124.479,81.265 124.250 C 81.207 124.021,81.087 123.833,80.997 123.833 C 80.907 123.833,80.833 123.721,80.833 123.583 C 80.833 123.446,80.758 123.333,80.667 123.333 C 80.575 123.333,80.500 123.246,80.500 123.138 C 80.500 122.908,79.493 120.788,79.326 120.667 C 79.263 120.621,79.159 120.415,79.095 120.208 C 79.030 120.002,78.908 119.833,78.822 119.833 C 78.737 119.833,78.667 119.721,78.667 119.583 C 78.667 119.446,78.595 119.333,78.508 119.333 C 78.420 119.333,78.299 119.071,78.239 118.750 C 78.179 118.429,78.069 118.167,77.995 118.167 C 77.921 118.167,77.810 117.942,77.750 117.667 C 77.690 117.392,77.571 117.167,77.487 117.167 C 77.402 117.167,77.333 117.054,77.333 116.917 C 77.333 116.779,77.258 116.667,77.167 116.667 C 77.075 116.667,77.000 116.514,77.000 116.328 C 77.000 116.142,76.887 115.946,76.750 115.894 C 76.612 115.841,76.500 115.723,76.500 115.632 C 76.500 115.423,75.971 114.278,75.823 114.167 C 75.762 114.121,75.654 113.896,75.583 113.667 C 75.513 113.438,75.409 113.212,75.353 113.167 C 75.296 113.121,75.167 112.933,75.065 112.750 C 74.820 112.307,74.472 112.257,74.162 112.621 M161.500 134.917 L 161.500 146.167 164.750 146.167 L 168.000 146.167 168.000 134.917 L 168.000 123.667 164.750 123.667 L 161.500 123.667 161.500 134.917 M199.000 129.083 L 199.000 132.167 210.417 132.167 L 221.833 132.167 221.833 129.083 L 221.833 126.000 210.417 126.000 L 199.000 126.000 199.000 129.083 M335.538 128.315 C 335.165 128.692,334.791 129.000,334.707 129.000 C 334.623 129.000,334.285 129.300,333.956 129.667 C 333.627 130.033,333.277 130.333,333.179 130.333 C 332.908 130.333,332.333 130.965,332.333 131.262 C 332.333 131.554,332.720 132.000,332.974 132.000 C 333.264 132.000,335.000 133.866,335.000 134.179 C 335.000 134.345,335.075 134.527,335.167 134.583 C 335.373 134.711,335.390 136.833,335.185 136.833 C 335.103 136.833,334.989 137.021,334.932 137.250 C 334.874 137.479,334.753 137.667,334.663 137.667 C 334.574 137.667,334.500 137.742,334.500 137.833 C 334.500 138.049,333.883 138.667,333.667 138.667 C 333.575 138.667,333.500 138.740,333.500 138.830 C 333.500 138.920,333.313 139.041,333.083 139.098 C 332.854 139.156,332.667 139.266,332.667 139.344 C 332.667 139.421,332.404 139.534,332.083 139.594 C 331.762 139.655,331.500 139.770,331.500 139.852 C 331.500 139.933,331.275 140.000,331.000 140.000 C 330.725 140.000,330.500 140.075,330.500 140.167 C 330.500 140.265,329.889 140.333,329.000 140.333 C 328.111 140.333,327.500 140.265,327.500 140.167 C 327.500 140.075,327.279 140.000,327.010 140.000 C 326.740 140.000,326.473 139.925,326.417 139.833 C 326.360 139.742,326.201 139.667,326.064 139.667 C 325.684 139.667,324.333 139.013,324.333 138.829 C 324.333 138.740,324.071 138.667,323.750 138.667 C 323.429 138.667,323.167 138.742,323.167 138.833 C 323.167 138.925,323.060 139.000,322.929 139.000 C 322.668 139.000,321.667 139.935,321.667 140.179 C 321.667 140.264,321.535 140.335,321.375 140.336 C 321.215 140.338,320.759 140.675,320.362 141.086 C 319.965 141.497,319.534 141.833,319.403 141.833 C 319.262 141.833,319.167 142.001,319.167 142.250 C 319.167 142.509,319.261 142.667,319.417 142.667 C 319.554 142.667,319.667 142.740,319.667 142.830 C 319.667 142.920,319.854 143.041,320.083 143.098 C 320.313 143.156,320.500 143.270,320.500 143.351 C 320.500 143.433,320.612 143.500,320.750 143.500 C 320.887 143.500,321.000 143.567,321.000 143.648 C 321.000 143.730,321.262 143.845,321.583 143.906 C 321.904 143.966,322.167 144.086,322.167 144.172 C 322.167 144.259,322.467 144.377,322.833 144.436 C 323.200 144.495,323.500 144.608,323.500 144.688 C 323.500 144.768,323.719 144.833,323.986 144.833 C 324.253 144.833,324.503 144.927,324.542 145.042 C 324.595 145.201,325.613 145.250,328.880 145.250 C 332.073 145.250,333.202 145.197,333.358 145.042 C 333.473 144.927,333.777 144.833,334.033 144.833 C 334.290 144.833,334.500 144.768,334.500 144.688 C 334.500 144.608,334.800 144.495,335.167 144.436 C 335.533 144.377,335.833 144.255,335.833 144.165 C 335.833 144.074,336.012 144.000,336.230 144.000 C 336.448 144.000,336.719 143.887,336.833 143.750 C 336.947 143.612,337.144 143.500,337.270 143.500 C 337.397 143.500,337.500 143.433,337.500 143.351 C 337.500 143.270,337.688 143.156,337.917 143.098 C 338.146 143.041,338.333 142.920,338.333 142.830 C 338.333 142.740,338.414 142.667,338.513 142.667 C 338.748 142.667,340.667 140.748,340.667 140.513 C 340.667 140.414,340.737 140.333,340.822 140.333 C 340.908 140.333,341.030 140.165,341.095 139.958 C 341.159 139.752,341.262 139.546,341.323 139.500 C 341.553 139.328,342.000 138.183,342.000 137.766 C 342.000 137.528,342.075 137.333,342.167 137.333 C 342.266 137.333,342.333 136.694,342.333 135.750 C 342.333 134.879,342.268 134.167,342.188 134.167 C 342.109 134.167,342.003 133.813,341.955 133.380 C 341.906 132.948,341.784 132.567,341.683 132.533 C 341.582 132.500,341.500 132.366,341.500 132.236 C 341.500 132.106,341.434 132.000,341.354 132.000 C 341.274 132.000,341.164 131.778,341.110 131.508 C 341.011 131.014,338.660 128.500,338.297 128.500 C 338.201 128.500,337.987 128.343,337.821 128.152 C 337.228 127.468,336.311 127.534,335.538 128.315 M241.500 137.000 L 241.500 145.833 244.583 145.833 L 247.667 145.833 247.667 139.917 L 247.667 134.000 244.748 131.083 C 243.142 129.479,241.755 128.167,241.664 128.167 C 241.558 128.167,241.500 131.306,241.500 137.000 M82.167 140.000 C 82.167 140.183,82.236 140.333,82.320 140.333 C 82.404 140.333,82.523 140.558,82.583 140.833 C 82.644 141.108,82.762 141.333,82.847 141.333 C 82.931 141.333,83.000 141.446,83.000 141.583 C 83.000 141.721,83.067 141.833,83.148 141.833 C 83.230 141.833,83.345 142.096,83.406 142.417 C 83.466 142.737,83.579 143.000,83.656 143.000 C 83.734 143.000,83.848 143.202,83.910 143.448 C 83.972 143.695,84.162 144.018,84.333 144.167 C 84.504 144.315,84.695 144.638,84.757 144.885 C 84.819 145.132,84.936 145.333,85.018 145.333 C 85.100 145.333,85.167 145.446,85.167 145.583 C 85.167 145.798,85.676 145.833,88.750 145.833 L 92.333 145.833 92.333 145.345 C 92.333 145.077,92.225 144.748,92.092 144.615 C 91.959 144.482,91.800 144.177,91.740 143.937 C 91.680 143.697,91.564 143.500,91.482 143.500 C 91.400 143.500,91.333 143.387,91.333 143.250 C 91.333 143.112,91.262 143.000,91.174 143.000 C 91.087 143.000,90.966 142.737,90.906 142.417 C 90.845 142.096,90.730 141.833,90.648 141.833 C 90.567 141.833,90.500 141.721,90.500 141.583 C 90.500 141.446,90.425 141.333,90.333 141.333 C 90.242 141.333,90.167 141.226,90.167 141.095 C 90.167 140.964,90.064 140.755,89.939 140.629 C 89.813 140.504,89.658 140.236,89.594 140.034 C 89.419 139.483,82.167 139.450,82.167 140.000 M202.208 142.249 C 200.994 143.478,200.000 144.530,200.000 144.588 C 200.000 144.645,199.775 144.917,199.500 145.192 C 198.474 146.218,197.894 146.167,210.417 146.167 L 221.833 146.167 221.833 143.083 L 221.833 140.000 213.125 140.007 L 204.417 140.015 202.208 142.249 " stroke="none" fill="#fcfcfc" fill-rule="evenodd"></path><path id="path1" d="M202.167 13.332 C 202.318 13.430,204.843 13.496,208.542 13.497 L 214.667 13.500 214.667 18.667 L 214.667 23.833 211.708 23.836 C 208.947 23.838,208.057 23.959,208.403 24.283 C 208.481 24.356,208.579 24.323,208.620 24.208 C 208.676 24.052,209.460 24.000,211.766 24.000 L 214.838 24.000 214.794 18.625 L 214.750 13.250 208.333 13.210 C 204.114 13.183,202.002 13.225,202.167 13.332 " stroke="none" fill="#f4c4c4" fill-rule="evenodd"></path><path id="path2" d="M193.833 0.167 C 193.833 0.258,193.907 0.333,193.997 0.333 C 194.087 0.333,194.207 0.521,194.265 0.750 C 194.322 0.979,194.428 1.167,194.500 1.167 C 194.572 1.167,194.678 1.354,194.735 1.583 C 194.793 1.813,194.913 2.000,195.003 2.000 C 195.093 2.000,195.167 2.112,195.167 2.250 C 195.167 2.387,195.242 2.500,195.333 2.500 C 195.425 2.500,195.500 2.607,195.500 2.738 C 195.500 2.869,195.594 3.075,195.709 3.196 C 195.824 3.318,196.066 3.698,196.247 4.042 C 196.428 4.385,196.634 4.667,196.705 4.667 C 196.775 4.667,196.833 4.766,196.833 4.888 C 196.833 5.079,197.738 6.595,197.994 6.833 C 198.043 6.879,198.213 7.198,198.372 7.542 C 198.531 7.885,198.732 8.167,198.817 8.167 C 198.903 8.167,199.022 8.386,199.081 8.655 C 199.140 8.924,199.296 9.233,199.427 9.342 C 199.559 9.451,199.667 9.644,199.667 9.770 C 199.667 9.897,199.742 10.000,199.833 10.000 C 199.925 10.000,200.000 10.142,200.000 10.316 C 200.000 10.489,200.112 10.674,200.250 10.727 C 200.387 10.780,200.500 10.943,200.500 11.090 C 200.500 11.237,200.594 11.462,200.708 11.589 C 201.223 12.164,201.333 12.335,201.333 12.560 C 201.333 13.085,202.324 13.167,208.694 13.167 L 215.005 13.167 214.961 18.625 L 214.917 24.083 211.835 24.167 C 208.575 24.255,208.219 24.362,208.908 25.051 C 209.050 25.193,209.167 25.390,209.167 25.488 C 209.167 25.586,209.242 25.667,209.333 25.667 C 209.425 25.667,209.500 25.774,209.500 25.905 C 209.500 26.036,209.594 26.243,209.708 26.366 C 209.823 26.488,210.060 26.869,210.235 27.211 C 210.409 27.553,210.616 27.833,210.693 27.833 C 210.770 27.833,210.833 27.921,210.833 28.028 C 210.833 28.135,211.171 28.764,211.583 29.425 C 211.996 30.087,212.333 30.712,212.333 30.814 C 212.333 30.916,212.400 31.000,212.481 31.000 C 212.562 31.000,212.672 31.131,212.726 31.292 C 212.832 31.608,213.188 32.199,213.353 32.333 C 213.409 32.379,213.508 32.585,213.572 32.792 C 213.636 32.998,213.759 33.167,213.845 33.167 C 213.930 33.167,214.000 33.279,214.000 33.417 C 214.000 33.554,214.075 33.667,214.167 33.667 C 214.258 33.667,214.333 33.813,214.333 33.992 C 214.333 34.170,214.427 34.377,214.542 34.450 C 214.656 34.523,214.893 34.865,215.068 35.208 C 215.243 35.552,215.449 35.833,215.526 35.833 C 215.603 35.833,215.667 35.951,215.667 36.095 C 215.667 36.239,215.892 36.684,216.167 37.083 C 216.442 37.483,216.667 37.881,216.667 37.968 C 216.667 38.055,216.779 38.219,216.917 38.333 C 217.054 38.447,217.167 38.682,217.167 38.854 C 217.167 39.026,217.230 39.167,217.307 39.167 C 217.384 39.167,217.591 39.448,217.765 39.792 C 217.940 40.135,218.121 40.454,218.167 40.500 C 218.335 40.668,218.679 41.258,218.774 41.542 C 218.828 41.702,218.921 41.833,218.982 41.833 C 219.042 41.833,219.239 42.115,219.420 42.458 C 219.601 42.802,219.843 43.182,219.958 43.304 C 220.073 43.425,220.167 43.631,220.167 43.762 C 220.167 43.893,220.234 44.000,220.315 44.000 C 220.397 44.000,220.511 44.188,220.568 44.417 C 220.626 44.646,220.747 44.833,220.837 44.833 C 220.926 44.833,221.000 44.946,221.000 45.083 C 221.000 45.221,221.066 45.333,221.147 45.333 C 221.228 45.333,221.340 45.465,221.396 45.625 C 221.530 46.013,222.310 47.378,222.463 47.493 C 222.529 47.543,222.715 47.827,222.875 48.125 C 223.035 48.423,223.298 48.910,223.458 49.208 C 223.619 49.506,223.793 49.787,223.846 49.833 C 223.899 49.879,224.086 50.178,224.263 50.497 C 224.439 50.816,224.677 51.178,224.792 51.301 C 224.906 51.423,225.000 51.631,225.000 51.762 C 225.000 51.893,225.067 52.000,225.149 52.000 C 225.230 52.000,225.344 52.187,225.402 52.417 C 225.459 52.646,225.580 52.833,225.670 52.833 C 225.760 52.833,225.833 52.946,225.833 53.083 C 225.833 53.221,225.908 53.333,226.000 53.333 C 226.092 53.333,226.167 53.440,226.167 53.571 C 226.167 53.702,226.269 53.912,226.395 54.038 C 226.520 54.163,226.671 54.418,226.730 54.603 C 226.789 54.789,226.968 55.086,227.127 55.262 C 227.286 55.439,227.547 55.865,227.706 56.208 C 227.865 56.552,228.065 56.833,228.151 56.833 C 228.237 56.833,228.356 57.058,228.417 57.333 C 228.477 57.608,228.588 57.833,228.664 57.833 C 228.739 57.833,228.880 58.059,228.976 58.336 C 229.072 58.612,229.262 58.881,229.399 58.933 C 229.535 58.985,229.693 59.241,229.751 59.502 C 229.808 59.763,229.962 60.066,230.094 60.176 C 230.226 60.285,230.333 60.477,230.333 60.604 C 230.333 60.730,230.408 60.833,230.500 60.833 C 230.592 60.833,230.667 60.983,230.667 61.167 C 230.667 61.350,230.738 61.500,230.826 61.500 C 230.913 61.500,231.107 61.759,231.258 62.076 C 231.408 62.392,231.636 62.739,231.765 62.846 C 231.894 62.953,232.000 63.182,232.000 63.354 C 232.000 63.526,232.075 63.667,232.167 63.667 C 232.258 63.667,232.333 63.747,232.333 63.844 C 232.333 63.942,232.502 64.261,232.709 64.553 C 233.195 65.239,233.405 65.594,233.840 66.458 C 234.036 66.848,234.265 67.167,234.348 67.167 C 234.432 67.167,234.500 67.262,234.500 67.378 C 234.500 67.494,234.690 67.869,234.923 68.211 C 235.155 68.553,235.302 68.833,235.250 68.833 C 235.197 68.833,235.310 69.001,235.500 69.205 C 235.690 69.409,235.889 69.747,235.941 69.955 C 235.993 70.163,236.103 70.333,236.185 70.333 C 236.266 70.333,236.333 70.446,236.333 70.583 C 236.333 70.721,236.403 70.833,236.489 70.833 C 236.574 70.833,236.697 71.002,236.761 71.208 C 236.826 71.415,236.924 71.621,236.981 71.667 C 237.146 71.801,237.501 72.392,237.608 72.708 C 237.661 72.869,237.772 73.000,237.853 73.000 C 237.934 73.000,238.000 73.107,238.000 73.238 C 238.000 73.369,238.098 73.575,238.218 73.696 C 238.422 73.903,238.715 74.517,238.666 74.638 C 238.655 74.667,238.789 74.817,238.965 74.971 C 239.141 75.124,239.339 75.419,239.404 75.625 C 239.469 75.831,239.592 76.000,239.678 76.000 C 239.763 76.000,239.833 76.112,239.833 76.250 C 239.833 76.387,239.908 76.500,240.000 76.500 C 240.092 76.500,240.167 76.607,240.167 76.738 C 240.167 76.869,240.269 77.079,240.395 77.204 C 240.520 77.330,240.671 77.584,240.730 77.770 C 240.789 77.956,240.968 78.255,241.127 78.434 C 241.286 78.613,241.604 79.131,241.833 79.585 C 242.063 80.039,242.337 80.504,242.443 80.618 C 242.549 80.733,242.736 81.053,242.858 81.330 C 242.981 81.607,243.138 81.833,243.207 81.833 C 243.277 81.833,243.333 81.975,243.333 82.149 C 243.333 82.322,243.446 82.508,243.583 82.560 C 243.721 82.613,243.833 82.771,243.833 82.911 C 243.833 83.052,243.900 83.167,243.982 83.167 C 244.064 83.167,244.178 83.354,244.235 83.583 C 244.293 83.813,244.413 84.000,244.503 84.000 C 244.593 84.000,244.667 84.112,244.667 84.250 C 244.667 84.387,244.742 84.500,244.833 84.500 C 244.925 84.500,245.000 84.646,245.000 84.825 C 245.000 85.004,245.094 85.210,245.208 85.283 C 245.323 85.357,245.560 85.698,245.735 86.042 C 245.909 86.385,246.116 86.667,246.193 86.667 C 246.270 86.667,246.333 86.787,246.333 86.934 C 246.333 87.081,246.558 87.535,246.833 87.943 C 247.108 88.350,247.333 88.743,247.333 88.816 C 247.333 89.541,242.695 89.500,323.971 89.500 L 400.000 89.500 400.000 44.750 L 400.000 0.000 296.917 0.000 C 228.306 0.000,193.833 0.056,193.833 0.167 M259.958 13.625 C 259.997 13.740,260.284 13.833,260.597 13.833 C 260.910 13.833,261.167 13.908,261.167 14.000 C 261.167 14.092,261.362 14.167,261.600 14.167 C 262.017 14.167,262.726 14.421,263.722 14.927 C 263.981 15.059,264.300 15.167,264.430 15.167 C 264.560 15.167,264.667 15.236,264.667 15.320 C 264.667 15.404,264.892 15.523,265.167 15.583 C 265.442 15.644,265.667 15.762,265.667 15.847 C 265.667 15.931,265.779 16.000,265.917 16.000 C 266.054 16.000,266.167 16.067,266.167 16.149 C 266.167 16.230,266.354 16.344,266.583 16.402 C 266.813 16.459,267.000 16.580,267.000 16.670 C 267.000 16.760,267.112 16.833,267.249 16.833 C 267.385 16.833,267.712 17.058,267.975 17.333 C 268.238 17.608,268.503 17.833,268.564 17.833 C 268.913 17.833,272.333 21.571,272.333 21.953 C 272.333 22.070,272.391 22.167,272.462 22.167 C 272.533 22.167,272.739 22.448,272.920 22.792 C 273.101 23.135,273.343 23.516,273.458 23.637 C 273.573 23.758,273.667 23.964,273.667 24.095 C 273.667 24.226,273.733 24.333,273.814 24.333 C 273.895 24.333,274.016 24.502,274.083 24.708 C 274.150 24.915,274.221 25.121,274.241 25.167 C 274.261 25.212,274.335 25.456,274.407 25.708 C 274.478 25.960,274.594 26.167,274.666 26.167 C 274.737 26.167,274.846 26.502,274.907 26.913 C 274.969 27.323,275.090 27.703,275.176 27.756 C 275.263 27.809,275.333 28.030,275.333 28.246 C 275.333 28.462,275.405 28.664,275.492 28.694 C 275.579 28.725,275.702 29.444,275.766 30.292 C 275.829 31.140,275.945 31.833,276.024 31.833 C 276.102 31.833,276.167 32.696,276.167 33.750 C 276.167 34.804,276.103 35.667,276.025 35.667 C 275.946 35.667,275.832 36.321,275.771 37.120 C 275.709 37.920,275.586 38.648,275.496 38.737 C 275.407 38.827,275.333 39.068,275.333 39.273 C 275.333 39.479,275.263 39.691,275.176 39.744 C 275.090 39.797,274.969 40.177,274.907 40.587 C 274.846 40.998,274.737 41.333,274.666 41.333 C 274.594 41.333,274.478 41.540,274.407 41.792 C 274.335 42.044,274.261 42.287,274.241 42.333 C 274.221 42.379,274.150 42.585,274.083 42.792 C 274.016 42.998,273.903 43.167,273.832 43.167 C 273.761 43.167,273.660 43.337,273.608 43.545 C 273.556 43.753,273.375 44.072,273.205 44.253 C 273.036 44.435,272.887 44.642,272.874 44.713 C 272.819 45.003,272.096 46.167,271.969 46.167 C 271.895 46.167,271.833 46.242,271.833 46.335 C 271.833 46.617,269.920 48.698,269.784 48.562 C 269.736 48.514,269.648 48.631,269.587 48.821 C 269.527 49.011,269.417 49.167,269.343 49.167 C 269.269 49.167,268.864 49.485,268.444 49.875 C 267.400 50.842,266.821 51.263,266.292 51.441 C 266.131 51.495,266.000 51.600,266.000 51.675 C 266.000 51.750,265.831 51.864,265.625 51.928 C 265.419 51.992,265.212 52.091,265.167 52.147 C 265.009 52.341,263.822 52.833,263.512 52.833 C 262.890 52.833,262.821 53.836,263.402 54.417 C 263.623 54.638,263.854 55.047,263.915 55.326 C 263.976 55.605,264.087 55.833,264.162 55.833 C 264.236 55.833,264.344 56.021,264.402 56.250 C 264.459 56.479,264.580 56.667,264.670 56.667 C 264.760 56.667,264.833 56.779,264.833 56.917 C 264.833 57.054,264.908 57.167,265.000 57.167 C 265.092 57.167,265.167 57.274,265.167 57.405 C 265.167 57.536,265.261 57.742,265.375 57.863 C 265.490 57.984,265.732 58.365,265.913 58.708 C 266.094 59.052,266.294 59.333,266.358 59.333 C 266.422 59.333,266.523 59.558,266.583 59.833 C 266.644 60.108,266.753 60.333,266.827 60.333 C 266.901 60.333,267.005 60.465,267.059 60.625 C 267.165 60.941,267.521 61.533,267.686 61.667 C 267.742 61.712,267.841 61.919,267.905 62.125 C 267.970 62.331,268.092 62.500,268.178 62.500 C 268.263 62.500,268.333 62.612,268.333 62.750 C 268.333 62.887,268.408 63.000,268.500 63.000 C 268.592 63.000,268.667 63.146,268.667 63.325 C 268.667 63.504,268.760 63.710,268.875 63.783 C 268.990 63.857,269.257 64.271,269.468 64.705 C 269.680 65.138,269.924 65.536,270.010 65.589 C 270.096 65.643,270.167 65.832,270.167 66.010 C 270.167 66.188,270.242 66.333,270.333 66.333 C 270.425 66.333,270.500 66.446,270.500 66.583 C 270.500 66.721,270.574 66.833,270.663 66.833 C 270.753 66.833,270.874 67.021,270.932 67.250 C 270.989 67.479,271.095 67.667,271.167 67.667 C 271.238 67.667,271.344 67.854,271.402 68.083 C 271.459 68.312,271.580 68.500,271.670 68.500 C 271.760 68.500,271.833 68.612,271.833 68.750 C 271.833 68.887,271.902 69.000,271.987 69.000 C 272.071 69.000,272.190 69.225,272.250 69.500 C 272.310 69.775,272.412 70.000,272.475 70.000 C 272.539 70.000,272.739 70.281,272.920 70.625 C 273.101 70.969,273.343 71.349,273.458 71.470 C 273.573 71.591,273.667 71.798,273.667 71.929 C 273.667 72.060,273.733 72.167,273.814 72.167 C 273.895 72.167,274.011 72.298,274.071 72.458 C 274.278 73.006,274.579 73.500,274.706 73.500 C 274.776 73.500,274.833 73.647,274.833 73.826 C 274.833 74.005,275.021 74.339,275.250 74.568 C 275.479 74.797,275.667 75.091,275.667 75.220 C 275.667 75.349,275.817 75.646,276.000 75.879 C 276.183 76.112,276.333 76.347,276.333 76.401 C 276.333 76.456,273.746 76.500,270.583 76.500 C 265.583 76.500,264.833 76.467,264.833 76.250 C 264.833 76.112,264.766 76.000,264.685 76.000 C 264.603 76.000,264.489 75.813,264.432 75.583 C 264.374 75.354,264.259 75.167,264.177 75.167 C 264.094 75.167,263.977 74.942,263.917 74.667 C 263.856 74.392,263.738 74.167,263.653 74.167 C 263.569 74.167,263.500 74.054,263.500 73.917 C 263.500 73.779,263.430 73.667,263.345 73.667 C 263.259 73.667,263.136 73.498,263.072 73.292 C 263.008 73.085,262.909 72.879,262.853 72.833 C 262.688 72.699,262.332 72.108,262.226 71.792 C 262.172 71.631,262.062 71.500,261.981 71.500 C 261.900 71.500,261.833 71.359,261.833 71.187 C 261.833 71.015,261.721 70.781,261.583 70.667 C 261.446 70.553,261.333 70.362,261.333 70.243 C 261.333 70.125,261.277 70.003,261.208 69.972 C 261.140 69.942,260.896 69.544,260.667 69.088 C 260.438 68.633,260.116 68.109,259.952 67.925 C 259.788 67.741,259.611 67.420,259.559 67.212 C 259.507 67.004,259.397 66.833,259.315 66.833 C 259.234 66.833,259.167 66.721,259.167 66.583 C 259.167 66.446,259.092 66.333,259.000 66.333 C 258.908 66.333,258.833 66.226,258.833 66.095 C 258.833 65.964,258.731 65.755,258.605 65.629 C 258.480 65.504,258.319 65.217,258.248 64.992 C 258.177 64.767,257.985 64.466,257.821 64.323 C 257.657 64.181,257.472 63.862,257.410 63.615 C 257.348 63.368,257.230 63.167,257.149 63.167 C 257.067 63.167,257.000 63.060,257.000 62.929 C 257.000 62.798,256.903 62.591,256.785 62.470 C 256.667 62.349,256.439 61.969,256.278 61.625 C 256.116 61.281,255.913 61.000,255.826 61.000 C 255.738 61.000,255.667 60.850,255.667 60.667 C 255.667 60.483,255.592 60.333,255.500 60.333 C 255.408 60.333,255.333 60.230,255.333 60.104 C 255.333 59.977,255.228 59.787,255.100 59.680 C 254.971 59.574,254.818 59.296,254.760 59.062 C 254.701 58.829,254.503 58.477,254.320 58.281 C 254.137 58.084,253.944 57.753,253.892 57.545 C 253.840 57.337,253.738 57.167,253.667 57.167 C 253.595 57.167,253.489 56.979,253.432 56.750 C 253.374 56.521,253.253 56.333,253.163 56.333 C 253.074 56.333,253.000 56.221,253.000 56.083 C 253.000 55.946,252.933 55.833,252.851 55.833 C 252.770 55.833,252.652 55.632,252.590 55.385 C 252.528 55.138,252.343 54.819,252.179 54.677 C 252.015 54.534,251.823 54.233,251.752 54.008 C 251.681 53.783,251.520 53.496,251.395 53.371 C 251.269 53.245,251.167 53.036,251.167 52.905 C 251.167 52.774,251.092 52.667,251.000 52.667 C 250.908 52.667,250.833 52.517,250.833 52.333 C 250.833 52.150,250.767 52.000,250.686 52.000 C 250.605 52.000,250.495 51.869,250.441 51.708 C 250.336 51.397,250.128 51.049,249.566 50.250 C 249.373 49.975,249.156 49.563,249.085 49.333 C 249.013 49.104,248.909 48.879,248.853 48.833 C 248.688 48.699,248.332 48.108,248.226 47.792 C 248.172 47.631,248.070 47.500,247.999 47.500 C 247.928 47.500,247.822 47.313,247.765 47.083 C 247.707 46.854,247.587 46.667,247.497 46.667 C 247.407 46.667,247.333 46.554,247.333 46.417 C 247.333 46.279,247.267 46.167,247.186 46.167 C 247.105 46.167,247.001 46.035,246.955 45.875 C 246.909 45.715,246.819 45.457,246.755 45.303 C 246.648 45.043,247.106 45.018,252.848 44.969 C 257.628 44.929,259.072 44.869,259.125 44.708 C 259.163 44.594,259.376 44.500,259.597 44.500 C 259.819 44.500,260.000 44.431,260.000 44.347 C 260.000 44.262,260.225 44.144,260.500 44.083 C 260.775 44.023,261.000 43.904,261.000 43.820 C 261.000 43.736,261.152 43.667,261.339 43.667 C 261.525 43.667,261.720 43.554,261.773 43.417 C 261.826 43.279,261.941 43.167,262.030 43.167 C 262.213 43.167,262.319 43.076,263.532 41.875 C 264.656 40.763,264.833 40.554,264.833 40.340 C 264.833 40.245,264.900 40.167,264.982 40.167 C 265.064 40.167,265.178 39.979,265.235 39.750 C 265.293 39.521,265.412 39.333,265.501 39.333 C 265.590 39.333,265.711 39.033,265.769 38.667 C 265.828 38.300,265.941 38.000,266.021 38.000 C 266.101 38.000,266.167 37.819,266.167 37.597 C 266.167 37.376,266.260 37.163,266.375 37.125 C 266.655 37.032,266.670 31.568,266.392 30.984 C 265.949 30.057,265.667 29.355,265.667 29.183 C 265.667 29.082,265.600 29.000,265.518 29.000 C 265.436 29.000,265.322 28.813,265.265 28.583 C 265.207 28.354,265.087 28.167,264.997 28.167 C 264.907 28.167,264.833 28.089,264.833 27.993 C 264.833 27.604,262.392 25.167,262.001 25.167 C 261.909 25.167,261.833 25.100,261.833 25.018 C 261.833 24.936,261.646 24.822,261.417 24.765 C 261.188 24.707,261.000 24.599,261.000 24.524 C 261.000 24.449,260.569 24.253,260.042 24.090 C 259.515 23.926,258.933 23.707,258.750 23.604 C 258.514 23.471,254.849 23.402,246.167 23.365 L 233.917 23.314 233.375 22.394 C 233.077 21.888,232.833 21.404,232.833 21.320 C 232.833 21.236,232.766 21.167,232.685 21.167 C 232.603 21.167,232.489 20.979,232.432 20.750 C 232.374 20.521,232.253 20.333,232.163 20.333 C 232.074 20.333,232.000 20.221,232.000 20.083 C 232.000 19.946,231.925 19.833,231.833 19.833 C 231.742 19.833,231.667 19.763,231.667 19.678 C 231.667 19.439,231.374 18.820,230.912 18.083 C 230.682 17.717,230.416 17.231,230.320 17.003 C 230.224 16.776,230.094 16.551,230.031 16.503 C 229.968 16.455,229.785 16.173,229.625 15.875 C 229.465 15.577,229.202 15.090,229.042 14.792 C 228.881 14.494,228.694 14.225,228.625 14.194 C 228.556 14.164,228.500 14.033,228.500 13.903 C 228.500 13.773,228.425 13.667,228.333 13.667 C 228.242 13.667,228.167 13.588,228.167 13.493 C 228.167 13.218,259.867 13.350,259.958 13.625 M326.167 18.583 L 326.167 23.833 310.886 23.833 L 295.605 23.833 294.469 22.670 C 293.844 22.030,293.333 21.476,293.333 21.439 C 293.333 21.401,292.921 20.938,292.417 20.409 C 291.912 19.880,291.500 19.389,291.500 19.318 C 291.500 19.247,291.349 19.141,291.164 19.083 C 290.980 19.024,290.872 18.906,290.924 18.821 C 290.977 18.736,290.949 18.667,290.863 18.667 C 290.658 18.667,289.333 17.342,289.333 17.137 C 289.333 17.051,289.258 17.027,289.167 17.083 C 289.075 17.140,289.000 17.030,289.000 16.840 C 289.000 16.631,288.833 16.417,288.583 16.303 C 288.354 16.199,288.167 16.051,288.167 15.974 C 288.167 15.898,287.642 15.315,287.000 14.678 C 286.358 14.042,285.833 13.479,285.833 13.427 C 285.833 13.375,294.908 13.333,306.000 13.333 L 326.167 13.333 326.167 18.583 M360.292 13.625 C 360.330 13.740,360.580 13.833,360.847 13.833 C 361.115 13.833,361.333 13.905,361.333 13.992 C 361.333 14.079,361.783 14.201,362.333 14.263 C 362.883 14.325,363.333 14.442,363.333 14.522 C 363.333 14.601,363.521 14.667,363.750 14.667 C 363.979 14.667,364.167 14.741,364.167 14.831 C 364.167 14.922,364.467 15.044,364.833 15.103 C 365.200 15.161,365.500 15.275,365.500 15.355 C 365.500 15.435,365.589 15.500,365.698 15.500 C 365.914 15.500,368.031 16.516,368.167 16.685 C 368.212 16.742,368.438 16.847,368.667 16.918 C 368.896 16.989,369.200 17.182,369.343 17.346 C 369.486 17.510,369.805 17.695,370.052 17.757 C 370.298 17.819,370.500 17.920,370.500 17.982 C 370.500 18.044,370.744 18.238,371.042 18.413 C 371.340 18.588,371.682 18.829,371.804 18.949 C 371.925 19.069,372.126 19.167,372.251 19.167 C 372.375 19.167,372.524 19.313,372.581 19.491 C 372.637 19.670,372.844 19.867,373.040 19.929 C 373.475 20.068,377.431 24.008,378.004 24.874 C 378.231 25.217,378.473 25.498,378.542 25.499 C 378.610 25.499,378.667 25.615,378.667 25.755 C 378.667 25.896,378.779 26.054,378.917 26.106 C 379.054 26.159,379.167 26.307,379.167 26.434 C 379.167 26.562,379.224 26.667,379.295 26.667 C 379.366 26.667,379.610 27.023,379.837 27.458 C 380.064 27.894,380.376 28.367,380.531 28.510 C 380.685 28.653,380.862 28.972,380.924 29.218 C 380.985 29.465,381.086 29.667,381.148 29.667 C 381.210 29.667,381.405 30.042,381.583 30.500 C 381.761 30.958,381.959 31.333,382.023 31.333 C 382.088 31.333,382.190 31.558,382.250 31.833 C 382.310 32.108,382.429 32.333,382.513 32.333 C 382.598 32.333,382.667 32.521,382.667 32.750 C 382.667 32.979,382.732 33.167,382.812 33.167 C 382.892 33.167,383.005 33.467,383.064 33.833 C 383.123 34.200,383.238 34.500,383.320 34.500 C 383.402 34.500,383.520 34.875,383.583 35.333 C 383.646 35.791,383.766 36.208,383.849 36.260 C 383.932 36.311,384.000 36.611,384.000 36.927 C 384.000 37.242,384.066 37.500,384.147 37.500 C 384.228 37.500,384.348 38.006,384.414 38.625 C 384.479 39.244,384.619 39.855,384.725 39.984 C 384.995 40.314,384.996 49.962,384.726 50.131 C 384.621 50.196,384.481 50.831,384.415 51.542 C 384.348 52.252,384.236 52.833,384.166 52.833 C 384.096 52.833,383.996 53.040,383.945 53.292 C 383.645 54.781,383.439 55.500,383.311 55.500 C 383.232 55.500,383.167 55.657,383.167 55.850 C 383.167 56.194,382.864 56.989,382.402 57.859 C 382.272 58.102,382.167 58.415,382.167 58.553 C 382.167 58.692,382.110 58.831,382.042 58.861 C 381.878 58.934,380.833 61.044,380.833 61.302 C 380.833 61.411,380.770 61.500,380.693 61.500 C 380.616 61.500,380.409 61.780,380.235 62.122 C 380.060 62.465,379.823 62.845,379.708 62.968 C 379.594 63.090,379.500 63.273,379.500 63.373 C 379.500 63.473,379.450 63.506,379.390 63.445 C 379.290 63.346,379.057 63.657,378.723 64.333 C 378.655 64.471,378.353 64.839,378.050 65.151 C 377.748 65.463,377.500 65.776,377.500 65.848 C 377.500 66.046,373.706 69.833,373.509 69.833 C 373.414 69.833,373.129 70.047,372.876 70.308 C 372.624 70.569,372.079 70.999,371.667 71.265 C 371.254 71.530,370.879 71.794,370.833 71.851 C 370.787 71.908,370.581 72.008,370.375 72.072 C 370.169 72.136,370.000 72.259,370.000 72.345 C 370.000 72.430,369.887 72.500,369.750 72.500 C 369.613 72.500,369.500 72.574,369.500 72.663 C 369.500 72.753,369.313 72.874,369.083 72.932 C 368.854 72.989,368.667 73.097,368.667 73.171 C 368.667 73.246,368.442 73.356,368.167 73.417 C 367.892 73.477,367.667 73.596,367.667 73.680 C 367.667 73.764,367.517 73.833,367.333 73.833 C 367.150 73.833,367.000 73.902,367.000 73.987 C 367.000 74.071,366.775 74.190,366.500 74.250 C 366.225 74.310,366.000 74.429,366.000 74.513 C 366.000 74.598,365.831 74.669,365.625 74.672 C 365.419 74.675,365.104 74.787,364.926 74.922 C 364.749 75.057,364.430 75.167,364.218 75.167 C 364.006 75.167,363.833 75.235,363.833 75.318 C 363.833 75.401,363.458 75.520,363.000 75.583 C 362.542 75.646,362.167 75.766,362.167 75.849 C 362.167 75.932,361.942 76.000,361.667 76.000 C 361.392 76.000,361.167 76.067,361.167 76.149 C 361.167 76.231,360.567 76.352,359.833 76.417 C 359.100 76.482,358.500 76.602,358.500 76.684 C 358.500 76.771,353.288 76.833,346.083 76.833 C 339.254 76.833,333.667 76.803,333.667 76.765 C 333.667 76.727,334.079 76.267,334.583 75.743 C 335.087 75.218,335.500 74.734,335.500 74.668 C 335.500 74.602,335.969 74.054,336.542 73.451 C 338.172 71.736,339.632 70.135,340.129 69.520 C 340.379 69.211,340.977 68.541,341.458 68.032 C 341.940 67.523,342.333 67.050,342.333 66.982 C 342.333 66.352,342.586 66.333,351.012 66.333 C 355.497 66.333,359.167 66.269,359.167 66.190 C 359.167 66.111,359.536 66.003,359.987 65.949 C 360.724 65.862,361.438 65.592,361.667 65.316 C 361.712 65.260,362.026 65.164,362.363 65.102 C 362.700 65.040,363.000 64.936,363.030 64.870 C 363.059 64.804,363.383 64.600,363.750 64.417 C 364.117 64.234,364.516 63.990,364.637 63.875 C 364.758 63.761,364.960 63.667,365.086 63.667 C 365.212 63.667,365.412 63.527,365.532 63.357 C 365.652 63.187,365.919 62.995,366.125 62.929 C 366.331 62.864,366.500 62.741,366.500 62.655 C 366.500 62.570,366.593 62.500,366.707 62.500 C 366.820 62.500,367.101 62.314,367.332 62.086 C 367.871 61.552,369.552 59.871,370.086 59.332 C 370.314 59.101,370.500 58.826,370.500 58.720 C 370.500 58.614,370.557 58.503,370.626 58.472 C 370.842 58.377,371.833 57.046,371.833 56.851 C 371.833 56.750,371.908 56.667,372.000 56.667 C 372.092 56.667,372.167 56.517,372.167 56.333 C 372.167 56.150,372.240 56.000,372.329 56.000 C 372.419 56.000,372.646 55.644,372.835 55.208 C 373.024 54.773,373.251 54.286,373.339 54.127 C 373.428 53.968,373.500 53.724,373.500 53.586 C 373.500 53.447,373.574 53.333,373.665 53.333 C 373.755 53.333,373.877 53.033,373.936 52.667 C 373.995 52.300,374.102 52.000,374.175 52.000 C 374.247 52.000,374.359 51.512,374.423 50.917 C 374.487 50.321,374.605 49.833,374.686 49.833 C 374.767 49.833,374.833 49.500,374.833 49.093 C 374.833 48.686,374.908 48.307,375.000 48.250 C 375.102 48.187,375.167 46.887,375.167 44.907 C 375.167 42.858,375.105 41.667,375.000 41.667 C 374.908 41.667,374.833 41.329,374.833 40.917 C 374.833 40.504,374.766 40.167,374.683 40.167 C 374.600 40.167,374.481 39.717,374.417 39.167 C 374.353 38.617,374.240 38.167,374.166 38.167 C 374.092 38.167,373.980 37.792,373.917 37.333 C 373.854 36.875,373.734 36.500,373.651 36.500 C 373.568 36.500,373.500 36.387,373.500 36.250 C 373.500 36.112,373.433 36.000,373.352 36.000 C 373.270 36.000,373.155 35.737,373.094 35.417 C 373.034 35.096,372.919 34.833,372.839 34.833 C 372.759 34.833,372.644 34.608,372.583 34.333 C 372.523 34.058,372.404 33.833,372.320 33.833 C 372.236 33.833,372.167 33.721,372.167 33.583 C 372.167 33.446,372.035 33.195,371.875 33.025 C 371.340 32.460,371.000 31.998,371.000 31.837 C 371.000 31.750,370.775 31.448,370.500 31.167 C 370.225 30.885,370.000 30.614,370.000 30.565 C 370.000 30.515,369.719 30.191,369.375 29.846 C 369.031 29.501,368.548 29.001,368.302 28.734 C 367.778 28.168,367.387 27.833,367.249 27.833 C 367.195 27.833,366.986 27.656,366.784 27.440 C 366.582 27.223,366.248 26.993,366.042 26.929 C 365.835 26.864,365.667 26.741,365.667 26.655 C 365.667 26.570,365.554 26.500,365.417 26.500 C 365.279 26.500,365.167 26.426,365.167 26.337 C 365.167 26.247,364.979 26.126,364.750 26.068 C 364.521 26.011,364.333 25.903,364.333 25.829 C 364.333 25.754,364.108 25.644,363.833 25.583 C 363.558 25.523,363.333 25.404,363.333 25.320 C 363.333 25.236,363.183 25.167,363.000 25.167 C 362.817 25.167,362.667 25.098,362.667 25.013 C 362.667 24.929,362.443 24.811,362.169 24.750 C 361.895 24.690,361.628 24.572,361.575 24.487 C 361.523 24.403,361.335 24.333,361.157 24.333 C 360.979 24.333,360.833 24.274,360.833 24.202 C 360.833 24.130,360.702 24.057,360.542 24.039 C 359.638 23.940,359.000 23.779,359.000 23.648 C 359.000 23.564,355.537 23.500,350.927 23.500 L 342.854 23.500 342.262 22.875 C 341.936 22.531,341.669 22.191,341.668 22.119 C 341.667 22.047,341.075 21.397,340.352 20.675 C 339.629 19.953,339.010 19.285,338.977 19.191 C 338.944 19.097,338.392 18.464,337.750 17.784 C 337.108 17.103,336.208 16.120,335.750 15.598 C 334.859 14.584,334.657 14.372,334.256 14.035 C 334.115 13.917,334.000 13.706,334.000 13.567 C 334.000 13.223,360.177 13.280,360.292 13.625 M326.167 45.083 L 326.167 50.167 305.750 50.167 L 285.333 50.167 285.333 45.083 L 285.333 40.000 305.750 40.000 L 326.167 40.000 326.167 45.083 M326.167 71.333 L 326.167 76.333 305.998 76.333 L 285.829 76.333 287.581 74.566 C 288.545 73.594,289.333 72.737,289.333 72.660 C 289.333 72.584,289.754 72.123,290.268 71.636 C 290.781 71.149,291.288 70.656,291.393 70.541 C 291.497 70.426,291.977 69.938,292.457 69.458 C 292.938 68.977,293.425 68.480,293.541 68.354 C 293.656 68.228,294.069 67.804,294.458 67.412 C 294.848 67.020,295.167 66.617,295.167 66.517 C 295.167 66.385,299.513 66.333,310.667 66.333 L 326.167 66.333 326.167 71.333 " stroke="none" fill="#d40c0c" fill-rule="evenodd"></path><path id="path3" d="M214.796 18.583 L 214.842 24.000 211.754 24.000 C 210.056 24.000,208.667 24.056,208.666 24.125 C 208.666 24.194,210.073 24.212,211.791 24.167 L 214.917 24.083 214.961 18.625 C 214.985 15.623,214.947 13.167,214.877 13.167 C 214.807 13.167,214.771 15.604,214.796 18.583 " stroke="none" fill="#dc4c4c" fill-rule="evenodd"></path><path id="path4" d="" stroke="none" fill="#e84c28" fill-rule="evenodd"></path></g></svg>